<svg xmlns="http://www.w3.org/2000/svg" id="Layer_1" viewBox="0 0 264.35 56.48">
    <defs>
        <style>.cls-1{fill:#c8202f;}</style>
    </defs>
    <path class="cls-1" d="M75.69,160.32c-10,0-17.78-7-17.78-16s7.81-16.1,17.78-16.1,17.78,7.09,17.78,16.1S85.65,160.32,75.69,160.32Zm0-25.66c-6.33,0-11.32,4.23-11.32,9.63s5,9.56,11.32,9.56S87,149.68,87,144.29,82,134.66,75.69,134.66Z" transform="translate(-11.87 -115.26)"/>
    <path class="cls-1" d="M139.27,160.32a6.55,6.55,0,0,1-6.48-6.61V140.39a6.17,6.17,0,0,0-12.31,0v19.93a6.45,6.45,0,0,1-6.46-6.47V140.39a6.19,6.19,0,0,0-12.34,0v13.39a6.55,6.55,0,0,1-6.46,6.54V140.39a12.39,12.39,0,0,1,12.59-12.2,12.71,12.71,0,0,1,9.43,4,12.66,12.66,0,0,1,9.35-4,12.43,12.43,0,0,1,12.68,12.2Z" transform="translate(-11.87 -115.26)"/>
    <path class="cls-1" d="M160.27,160.25a21.62,21.62,0,0,1-4.79-.48,6.42,6.42,0,0,1-4.43-7.8,8.12,8.12,0,0,1,.41-1.15l0-.06c1.81,2,4.79,3,8.76,3,5.91,0,10.57-4.18,10.57-9.43,0-5.46-4.66-9.75-10.57-9.75-5.62,0-11.18,3.08-11.18,9.88v21a6.42,6.42,0,0,1-6.48,6.31V144.48c0-9.42,7.42-16.35,17.66-16.35a17.69,17.69,0,0,1,12,4.64,15.78,15.78,0,0,1,5,11.58C177.3,153.24,169.84,160.25,160.27,160.25Z" transform="translate(-11.87 -115.26)"/>
    <path class="cls-1" d="M206.39,122.06H192.56v38.26h-.3a6.36,6.36,0,0,1-6.17-6.47V122.06H172.22a6.36,6.36,0,0,1-6.3-6.39h46.86A6.4,6.4,0,0,1,206.39,122.06Z" transform="translate(-11.87 -115.26)"/>
    <path class="cls-1" d="M261.74,156.26l-3.43-7.38H235.36l-3.4,7.58c-1.61,3-5.86,3.95-9.13,3.95l18.72-41a5.7,5.7,0,0,1,5.13-3.7,5.78,5.78,0,0,1,5.18,3.7l18.51,40.55C266.88,160.25,263.1,159.21,261.74,156.26Zm-14.35-33.91-9.18,20.18h17.34l-9.24-20.26Z" transform="translate(-11.87 -115.26)"/>
    <path class="cls-1" d="M50.65,127.72a19.73,19.73,0,0,0-14.28-6.12c-10,0-18.19,7.27-18.19,16.22s8.16,16.3,18.19,16.3a19.89,19.89,0,0,0,12.73-4.71,6.34,6.34,0,0,1,8.13.15,22.61,22.61,0,0,1-7,6.85,25.69,25.69,0,0,1-13.88,4c-13.54,0-24.5-10.12-24.5-22.57s11-22.56,24.5-22.56c9.62,0,18.39,5.25,22.29,13.33A6.26,6.26,0,0,1,50.65,127.72Z" transform="translate(-11.87 -115.26)"/>
    <path class="cls-1" d="M272.81,157.86a3.08,3.08,0,1,1,3.41-3.07A3.26,3.26,0,0,1,272.81,157.86Zm0-5.42a2.38,2.38,0,1,0,0,4.73,2.39,2.39,0,1,0,0-4.73Zm1.24,2.64a1.12,1.12,0,0,1-.29.14l.85,1-.13.1a.65.65,0,0,1-.91-.06c-.7-.86-.78-.94-.78-.94H272v-.25a.67.67,0,0,1,.64-.57h.4a1.18,1.18,0,0,0,.65-.14c.12,0,.14-.14.14-.27s0-.36-.79-.36h-1.12v2.11a.63.63,0,0,1-.66.63h-.15v-3a.66.66,0,0,1,.63-.6H273c1.47,0,1.61.84,1.61,1.18A1.09,1.09,0,0,1,274.05,155.08Z" transform="translate(-11.87 -115.26)"/>
    <path class="cls-1" d="M214.84,115.68v38.38a6.43,6.43,0,0,0,6.47,6.26V121.94A6.43,6.43,0,0,0,214.84,115.68Z" transform="translate(-11.87 -115.26)"/>
</svg>