<svg width="2434" height="898" viewBox="0 0 2434 898" fill="none" xmlns="http://www.w3.org/2000/svg">
<path d="M2410.56 377.605V463.605H2421.89H2433.23V377.605V291.605H2421.89H2410.56V377.605Z" fill="white"/>
<path d="M2305.23 337.472C2287.49 342.405 2277.63 352.938 2275.23 369.605L2274.29 375.605H2286.29H2298.29L2299.09 371.205C2301.49 358.272 2310.16 353.072 2328.56 352.938C2348.43 352.938 2354.16 357.872 2355.49 376.272L2356.29 386.272H2340.16C2313.23 386.272 2294.29 391.338 2282.83 401.605C2265.36 417.338 2267.09 445.872 2286.43 458.138C2294.69 463.472 2302.03 465.072 2315.76 465.072C2328.69 464.938 2338.56 462.538 2348.96 456.805L2355.89 452.938V458.272V463.605H2368.03H2380.03L2379.63 413.872C2379.23 365.338 2379.09 364.138 2376.16 357.605C2368.43 340.672 2357.23 335.472 2328.69 335.738C2319.09 335.738 2308.56 336.538 2305.23 337.472ZM2355.89 417.205V430.672L2350.69 435.605C2342.43 443.472 2334.29 446.805 2321.76 447.338C2312.83 447.738 2310.03 447.338 2305.49 445.072C2298.29 441.338 2295.36 436.805 2295.36 429.072C2295.49 411.872 2309.63 403.872 2340.29 403.738L2355.89 403.605V417.205Z" fill="white"/>
<path d="M2186.03 337.739C2183.23 338.672 2178.03 341.739 2174.43 344.272L2167.89 348.939V343.605V338.272H2155.89H2143.89V424.272V510.272H2155.89H2167.89V483.205V456.005L2175.63 459.872C2184.69 464.405 2198.03 466.272 2209.36 464.672C2229.49 462.005 2245.09 446.005 2251.49 421.872C2254.43 410.805 2254.43 387.072 2251.49 376.005C2246.43 356.939 2236.16 343.739 2222.16 338.539C2212.96 335.072 2194.29 334.672 2186.03 337.739ZM2211.63 354.805C2225.36 362.005 2231.63 382.272 2229.09 410.672C2226.83 435.339 2216.69 447.605 2198.83 447.605C2189.36 447.605 2181.76 445.205 2173.89 439.472L2167.89 435.205V404.805V374.405L2175.23 366.539C2179.36 362.139 2185.09 357.205 2188.29 355.739C2194.83 352.405 2206.29 352.005 2211.63 354.805Z" fill="white"/>
<path d="M2044.56 337.339C2036.29 340.139 2030.83 343.339 2024.29 349.339C2012.56 360.139 2006.69 374.672 2005.63 395.605C2003.23 442.272 2030.03 468.805 2075.49 464.805C2097.63 462.805 2115.36 448.272 2118.96 429.205L2119.89 424.939H2107.89H2095.89L2095.09 428.805C2093.89 434.272 2086.96 442.272 2080.69 445.072C2072.96 448.539 2058.56 448.539 2050.96 444.805C2040.56 439.739 2032.43 427.205 2029.89 411.872L2028.96 406.272H2075.89H2122.96L2121.89 394.005C2119.76 366.539 2109.36 349.072 2089.49 339.872C2082.83 336.805 2080.03 336.272 2065.89 336.005C2055.36 335.739 2048.03 336.272 2044.56 337.339ZM2079.36 356.805C2087.49 361.472 2093.49 370.139 2096.29 381.205L2098.29 388.939H2063.63H2028.96L2029.89 384.539C2031.63 376.405 2037.63 364.805 2042.29 360.805C2049.09 354.805 2054.03 353.072 2063.89 352.939C2071.09 352.939 2073.76 353.605 2079.36 356.805Z" fill="white"/>
<path d="M1842.56 377.605V463.605H1853.89H1865.23L1865.49 397.072L1865.89 330.539L1909.23 396.805L1952.69 462.939L1965.63 463.339L1978.56 463.739V377.605V291.605H1966.56H1954.56L1954.29 357.205L1953.89 422.805L1910.96 357.605L1868.16 292.272L1855.36 291.872L1842.56 291.472V377.605Z" fill="white"/>
<path d="M1708.29 337.073C1705.89 337.739 1700.03 341.073 1695.23 344.273L1686.56 350.273V344.273V338.273H1674.56H1662.56V400.939V463.606H1674.56H1686.56V418.406V373.206L1694.29 366.139C1704.69 356.673 1711.36 353.873 1722.03 354.539C1729.09 354.939 1731.23 355.739 1734.29 358.673C1740.83 364.939 1741.23 368.806 1741.23 418.139V463.606H1753.23H1765.36L1764.96 413.206C1764.56 363.473 1764.56 362.806 1761.36 355.873C1757.63 347.606 1750.03 340.539 1741.49 337.739C1734.83 335.339 1715.36 335.073 1708.29 337.073Z" fill="#F03049"/>
<path d="M1563.23 337.339C1554.96 340.139 1549.49 343.339 1542.96 349.339C1531.23 360.139 1525.36 374.672 1524.29 395.606C1521.89 442.272 1548.69 468.806 1594.16 464.806C1616.29 462.806 1634.03 448.272 1637.63 429.206L1638.56 424.939H1626.56H1614.56L1613.76 428.806C1612.56 434.272 1605.63 442.272 1599.36 445.072C1591.63 448.539 1577.23 448.539 1569.63 444.806C1559.23 439.739 1551.09 427.206 1548.56 411.872L1547.63 406.272H1594.56H1641.63L1640.56 394.006C1638.43 366.539 1628.03 349.072 1608.16 339.872C1601.49 336.806 1598.69 336.272 1584.56 336.006C1574.03 335.739 1566.69 336.272 1563.23 337.339ZM1598.03 356.806C1606.16 361.472 1612.16 370.139 1614.96 381.206L1616.96 388.939H1582.29H1547.63L1548.56 384.539C1550.29 376.406 1556.29 364.806 1560.96 360.806C1567.76 354.806 1572.69 353.072 1582.56 352.939C1589.76 352.939 1592.43 353.606 1598.03 356.806Z" fill="#F03049"/>
<path d="M1400.69 291.072C1380.16 296.006 1361.49 311.072 1352.03 330.406C1343.89 347.072 1342.03 355.872 1342.03 376.939C1342.03 398.006 1343.89 406.806 1351.89 423.206C1359.36 438.272 1370.83 449.739 1385.63 456.806C1399.36 463.339 1407.49 465.072 1425.49 465.072C1446.69 465.072 1457.63 461.739 1471.49 451.472L1478.43 446.272L1481.23 454.939L1484.16 463.606H1492.69H1501.23V418.939V374.272H1467.23H1433.23V385.606V396.939H1455.23H1477.23V409.472V421.872L1471.23 427.472C1464.03 434.139 1451.76 440.272 1441.36 442.406C1437.36 443.206 1428.03 443.606 1420.56 443.339C1408.56 442.939 1406.03 442.406 1398.29 438.539C1378.56 428.806 1367.63 410.006 1365.76 382.272C1363.63 351.206 1376.69 325.206 1399.49 314.539C1406.03 311.606 1409.49 310.939 1422.03 310.539C1433.23 310.139 1438.96 310.539 1444.69 312.272C1459.49 316.406 1470.16 326.139 1473.49 338.806L1475.09 344.939H1486.96H1498.83L1497.89 338.539C1496.56 328.806 1491.36 318.939 1483.23 310.406C1469.09 295.606 1450.56 288.806 1424.03 289.072C1415.49 289.072 1405.09 290.006 1400.69 291.072Z" fill="#F03049"/>
<path d="M1242.43 338.006C1217.89 346.139 1205.23 367.339 1205.23 400.272C1205.23 442.139 1225.76 465.072 1263.23 465.072C1284.43 465.072 1298.56 458.672 1309.49 444.272C1324.96 423.739 1326.56 384.006 1312.56 360.272C1308.03 352.539 1298.29 344.006 1289.49 340.006C1279.09 335.206 1254.03 334.272 1242.43 338.006ZM1276.56 355.472C1292.43 362.806 1300.69 384.939 1297.36 410.806C1295.23 426.806 1289.49 437.606 1279.89 443.206C1273.76 446.939 1271.36 447.606 1264.29 447.606C1259.63 447.606 1253.63 446.672 1250.83 445.472C1235.89 439.339 1228.16 420.939 1229.49 395.206C1230.69 375.206 1237.49 361.739 1249.49 355.739C1256.83 352.139 1269.09 352.006 1276.56 355.472Z" fill="#F03049"/>
<path d="M1149.23 322.939V338.272H1141.89H1134.56V346.939V355.605H1141.89H1149.09L1149.49 401.872C1149.89 445.206 1150.03 448.672 1152.56 453.606C1157.23 462.806 1164.96 465.339 1187.63 465.072L1195.89 464.939V456.272V447.606H1187.49C1173.36 447.606 1174.03 449.739 1173.49 398.806L1173.09 355.605H1182.56H1191.89V346.939V338.272H1182.56H1173.23V322.939V307.605H1161.23H1149.23V322.939Z" fill="#F03049"/>
<path d="M1055.36 337.739C1052.56 338.673 1047.36 341.739 1043.76 344.273L1037.23 348.939V343.606V338.273H1025.23H1013.23V424.939V511.606H1025.23H1037.23V483.873V456.006L1044.96 459.873C1054.03 464.406 1067.36 466.273 1078.69 464.673C1098.83 462.006 1114.43 446.006 1120.83 421.873C1123.76 410.806 1123.76 387.073 1120.83 376.006C1115.76 356.939 1105.49 343.739 1091.49 338.539C1082.29 335.073 1063.63 334.673 1055.36 337.739ZM1080.96 354.806C1094.69 362.006 1100.96 382.273 1098.43 410.673C1096.16 435.339 1086.03 447.606 1068.16 447.606C1058.69 447.606 1051.09 445.206 1043.23 439.473L1037.23 435.206V404.806V374.406L1044.56 366.539C1048.69 362.139 1054.43 357.206 1057.63 355.739C1064.16 352.406 1075.63 352.006 1080.96 354.806Z" fill="#F03049"/>
<path d="M856.561 338.139C853.627 339.472 848.427 343.606 844.961 347.339L838.561 354.139V346.272V338.272H826.561H814.561V400.939V463.606H826.561H838.561V420.139V376.672L842.427 371.739C844.561 369.072 849.494 365.072 853.227 363.072C859.361 359.739 861.094 359.339 870.561 359.872L881.094 360.272L881.494 350.672L881.894 341.072L904.427 401.606L926.827 462.139L922.694 471.206C920.294 476.139 916.027 482.406 913.094 485.206C908.027 490.006 907.361 490.272 899.094 490.272H890.427L890.827 501.206L891.227 512.272L901.227 512.672C915.094 513.206 918.694 512.272 925.494 506.272C932.294 500.406 938.427 489.472 946.294 469.606C953.094 452.272 994.561 340.272 994.561 339.072C994.561 338.539 989.094 338.406 982.427 338.539L970.294 338.939L954.427 384.806C945.761 410.006 938.561 430.806 938.294 431.072C938.027 431.339 930.561 410.539 921.894 384.939L905.894 338.272H893.627C886.294 338.272 881.227 337.739 881.227 336.939C881.227 334.539 862.427 335.472 856.561 338.139Z" fill="#F03049"/>
<path d="M694.961 290.806C684.694 293.339 671.761 300.139 664.161 306.939C645.494 323.739 635.627 352.939 637.761 384.939C638.827 401.339 641.227 410.939 648.161 424.939C657.894 444.939 675.894 459.072 697.227 463.472C707.627 465.739 728.827 465.472 739.361 462.939C763.761 457.339 783.094 437.206 786.027 414.539L786.961 407.606H775.094H763.227L761.494 414.539C758.427 427.739 748.827 437.606 735.494 441.606C725.627 444.539 707.361 444.139 697.894 440.939C679.627 434.672 667.494 419.072 663.227 396.539C659.494 377.206 661.494 356.006 668.561 340.139C673.094 330.006 683.494 319.472 693.627 314.806C701.361 311.206 703.094 310.939 717.894 310.939C735.894 311.072 741.761 312.806 751.227 321.072C756.561 325.739 762.561 336.806 762.561 341.872C762.561 344.806 762.961 344.939 774.694 344.939H786.961L786.161 338.806C785.894 335.472 783.361 328.272 780.694 322.939C772.961 307.206 758.294 296.006 738.961 291.072C729.227 288.539 705.094 288.406 694.961 290.806Z" fill="#F03049"/>
<path d="M151.227 3.07196C128.427 8.00529 103.76 18.5386 82.8271 32.5386C68.5605 42.0053 47.6271 62.0053 36.4271 76.9386C25.0938 91.7386 10.4271 121.472 4.96047 140.272C0.827141 154.672 0.827141 155.472 0.160474 188.405C-0.239526 216.272 0.0271411 223.872 1.89381 233.072C5.09381 248.272 9.62714 261.739 17.2271 277.872C35.2271 316.005 68.4271 349.605 106.694 368.405L116.96 373.339L117.76 382.139C119.627 400.539 126.827 438.672 133.227 464.405C145.627 514.805 160.694 555.872 183.894 602.939C232.827 702.539 301.894 784.939 394.96 854.805C414.694 869.605 455.494 896.805 459.494 897.739C461.894 898.405 465.894 895.605 479.494 884.139C537.627 834.805 600.16 772.272 643.494 720.139C711.227 638.672 751.227 565.339 761.894 503.072C762.96 496.539 763.894 490.672 763.894 490.139C763.894 489.472 736.827 489.072 701.76 489.205L639.627 489.605L631.36 508.272C605.627 566.005 573.36 621.472 541.227 662.939C525.094 683.605 492.294 716.272 475.894 727.872C468.96 732.805 462.294 736.939 461.227 736.939C455.094 736.939 410.56 699.472 382.96 671.072C316.96 603.205 272.027 524.139 251.227 438.939C246.427 419.072 240.827 387.472 241.494 384.139C241.76 382.939 246.694 380.539 253.894 378.139C330.16 352.672 382.027 284.005 386.294 202.672L387.227 186.005L423.894 171.072L460.56 156.005L564.16 207.739C621.227 236.272 668.294 259.605 668.827 259.605C670.427 259.472 729.36 150.005 728.827 148.405C728.16 146.672 463.627 10.272 460.827 10.272C459.894 10.272 431.094 21.6053 397.094 35.3386L335.227 60.4053L324.56 50.5386C299.894 27.7386 267.76 10.9386 234.56 3.47196C219.76 0.271961 166.16 0.0052944 151.227 3.07196ZM215.627 101.739C234.294 106.405 255.094 120.272 267.227 136.139C281.094 154.139 287.227 174.139 286.294 197.472C285.227 223.205 275.76 243.872 256.827 261.872C237.894 279.739 217.894 287.739 191.894 287.739C151.094 287.605 116.027 262.139 102.427 222.539C95.8938 203.605 96.2938 181.739 103.36 162.005C115.36 128.939 144.427 105.072 179.227 99.7386C188.96 98.1386 205.36 99.072 215.627 101.739Z" fill="#F03049"/>
</svg>
