<svg width="132" height="139" viewBox="0 0 132 139" fill="none" xmlns="http://www.w3.org/2000/svg">
<path d="M63.5 3L89 13L112 15.5L110.5 51H64L63.5 3Z" fill="white"/>
<path d="M18 50H64L65.9724 101.281L50.5 92L37.9724 81.2813L25.5 66.5L18 50Z" fill="white"/>
<path d="M15 12.7895L40.308 11.4361L64.1273 3.3158V50.6842H16.445L15 12.7895Z" fill="#43469D"/>
<path d="M64.1273 50.6842H110.365L103.14 66.4737L93.0256 80.9474L80.0214 91.4737L65.5722 100.684L64.1273 50.6842Z" fill="#43469D"/>
<path d="M65.5722 2C61.418 4.39601 52.693 9.12131 44.5114 11.2355C33.3763 14.1129 19.4055 13.0526 16.5156 13.0526" stroke="#F58220" stroke-width="3"/>
<path d="M64.1273 2C68.4112 4.78652 75.9188 8.75173 84.3561 11.2105C95.8392 14.5569 106.15 14.1053 110.484 14.1053" stroke="#F58220" stroke-width="3"/>
<path d="M64.1273 102C90.4797 88.1067 107.379 66.4597 110.876 46.7368C111.81 41.4737 111.81 37.5263 111.81 30.9474C111.81 24.3684 112.238 19.7028 111.81 15.1579M111.81 15.1579C111.767 14.7116 111.81 12.9576 111.81 12.5263C111.822 13.0304 111.793 14.9293 111.81 15.1579Z" stroke="#F58220" stroke-width="3"/>
<path d="M65.5722 102C39.2197 88.1067 19.6213 65.1439 16.1238 45.421C15.1904 40.1579 15.1904 36.2105 15.1904 29.6316C15.1904 23.0526 14.762 18.387 15.1904 13.8421M15.1904 13.8421C15.2325 13.3958 15.1904 11.6418 15.1904 11.2105C15.1779 11.7146 15.2069 13.6135 15.1904 13.8421Z" stroke="#F58220" stroke-width="3"/>
<path d="M47.5288 30.329C47.1648 28.6491 46.1716 27.1364 44.7188 26.0493C43.2661 24.9622 41.444 24.3681 39.5637 24.3685C36.4318 24.3685 33.7117 25.9869 32.3571 28.3553C30.7644 28.5121 29.2914 29.1993 28.2212 30.2849C27.151 31.3705 26.5592 32.778 26.5594 34.2369C26.5594 37.5033 29.4745 40.1579 33.0615 40.1579H47.1495C50.1405 40.1579 52.5679 37.9474 52.5679 35.2237C52.5679 32.6185 50.3464 30.5066 47.5288 30.329Z" fill="white"/>
<path d="M91.4709 35.9473C91.5749 35.1658 91.653 34.3842 91.653 33.5789C91.653 32.7737 91.5749 31.9921 91.4709 31.2105H95.8663C96.0744 31.9684 96.2045 32.7618 96.2045 33.5789C96.2045 34.396 96.0744 35.1894 95.8663 35.9473M89.1692 42.5315C89.9494 41.2171 90.5476 39.796 90.9637 38.3158H94.8C93.5401 40.2914 91.5413 41.7879 89.1692 42.5315ZM88.844 35.9473H82.7581C82.628 35.1658 82.55 34.3842 82.55 33.5789C82.55 32.7737 82.628 31.9802 82.7581 31.2105H88.844C88.9611 31.9802 89.0521 32.7737 89.0521 33.5789C89.0521 34.3842 88.9611 35.1658 88.844 35.9473ZM85.801 43.0052C84.7217 41.5842 83.8504 40.0092 83.3172 38.3158H88.2849C87.7517 40.0092 86.8804 41.5842 85.801 43.0052ZM80.5993 28.8421H76.8021C78.049 26.8611 80.0464 25.3623 82.4199 24.6263C81.6397 25.9408 81.0545 27.3618 80.5993 28.8421ZM76.8021 38.3158H80.5993C81.0545 39.796 81.6397 41.2171 82.4199 42.5315C80.0514 41.7875 78.0568 40.2907 76.8021 38.3158ZM75.7357 35.9473C75.5277 35.1894 75.3976 34.396 75.3976 33.5789C75.3976 32.7618 75.5277 31.9684 75.7357 31.2105H80.1312C80.0272 31.9921 79.9491 32.7737 79.9491 33.5789C79.9491 34.3842 80.0272 35.1658 80.1312 35.9473M85.801 24.1408C86.8804 25.5618 87.7517 27.1487 88.2849 28.8421H83.3172C83.8504 27.1487 84.7217 25.5618 85.801 24.1408ZM94.8 28.8421H90.9637C90.5567 27.3754 89.9541 25.9596 89.1692 24.6263C91.5619 25.3723 93.5516 26.8763 94.8 28.8421ZM85.801 21.7368C78.6097 21.7368 72.7968 27.0658 72.7968 33.5789C72.7968 36.7196 74.1669 39.7317 76.6056 41.9526C77.8132 43.0522 79.2468 43.9245 80.8245 44.5196C82.4023 45.1147 84.0933 45.421 85.801 45.421C89.25 45.421 92.5577 44.1734 94.9965 41.9526C97.4352 39.7317 98.8053 36.7196 98.8053 33.5789C98.8053 32.0238 98.4689 30.4839 97.8154 29.0471C97.1619 27.6104 96.204 26.3049 94.9965 25.2053C93.7889 24.1056 92.3553 23.2334 90.7776 22.6382C89.1998 22.0431 87.5088 21.7368 85.801 21.7368Z" fill="#F58220"/>
<path opacity="0.9" d="M57.2435 65.6667L54.8146 64.903C54.7433 63.9401 54.4784 63.0513 54.0397 62.303L56.1125 60.9949L55.468 59.0971L52.7085 60.8384C52.3557 60.5953 51.9738 60.4031 51.5503 60.2699C51.1267 60.1368 50.696 60.0735 50.2623 60.0694L49.2617 57.1459L47.4687 58.2773L48.2051 60.4686C47.3577 60.8153 46.549 61.3666 45.8423 62.0822L43.4134 61.3185L42.5988 63.467L44.4054 64.0349C44.2278 64.3758 44.0588 64.7195 43.9203 65.0847L43.513 66.1589L41.7843 65.6154L40.9697 67.7638L42.6985 68.3074L42.2912 69.3816C42.1527 69.7468 42.0529 70.1122 41.9617 70.4803L40.1552 69.9123L39.3406 72.0607L41.7695 72.8244C41.9395 75.0299 43.1149 76.8542 45.0338 77.4575C46.9528 78.0608 49.1138 77.2855 50.7418 75.6453L53.1707 76.4089L53.9853 74.2605L52.1787 73.6925C52.3564 73.3516 52.5253 73.008 52.6638 72.6427L53.0711 71.5685L54.7999 72.112L55.6144 69.9636L53.8856 69.4201L54.2929 68.3458C54.4314 67.9806 54.5312 67.6152 54.6224 67.2472L56.429 67.8151L57.2435 65.6667ZM48.799 72.6299L45.3415 71.5429L46.156 69.3944L49.6136 70.4815L48.799 72.6299ZM50.4281 68.333L46.9706 67.246L47.7851 65.0975L51.2427 66.1846L50.4281 68.333Z" fill="#F58220"/>
<path d="M88.3296 62.0877H87.4266V60.3334C87.4266 57.9123 85.4037 55.9474 82.9112 55.9474C80.4187 55.9474 78.3958 57.9123 78.3958 60.3334V62.0877H77.4927C76.4994 62.0877 75.6866 62.8772 75.6866 63.8421V72.6141C75.6866 73.579 76.4994 74.3684 77.4927 74.3684H88.3296C89.323 74.3684 90.1358 73.579 90.1358 72.6141V63.8421C90.1358 62.8772 89.323 62.0877 88.3296 62.0877ZM82.9112 69.9825C81.9178 69.9825 81.105 69.193 81.105 68.2281C81.105 67.2632 81.9178 66.4737 82.9112 66.4737C83.9046 66.4737 84.7173 67.2632 84.7173 68.2281C84.7173 69.193 83.9046 69.9825 82.9112 69.9825ZM85.7107 62.0877H80.1117V60.3334C80.1117 58.8334 81.3669 57.6141 82.9112 57.6141C84.4554 57.6141 85.7107 58.8334 85.7107 60.3334V62.0877Z" fill="white"/>
<path d="M19.5932 111H18.5364C18.4739 110.696 18.3645 110.429 18.2083 110.199C18.0549 109.969 17.8674 109.776 17.6458 109.619C17.427 109.46 17.1841 109.341 16.9171 109.261C16.65 109.182 16.3716 109.142 16.0819 109.142C15.5534 109.142 15.0748 109.276 14.6458 109.543C14.2196 109.81 13.8801 110.203 13.6273 110.723C13.3773 111.243 13.2523 111.881 13.2523 112.636C13.2523 113.392 13.3773 114.03 13.6273 114.55C13.8801 115.07 14.2196 115.463 14.6458 115.73C15.0748 115.997 15.5534 116.131 16.0819 116.131C16.3716 116.131 16.65 116.091 16.9171 116.011C17.1841 115.932 17.427 115.814 17.6458 115.658C17.8674 115.499 18.0549 115.304 18.2083 115.074C18.3645 114.841 18.4739 114.574 18.5364 114.273H19.5932C19.5137 114.719 19.3688 115.118 19.1586 115.47C18.9483 115.822 18.687 116.122 18.3745 116.369C18.062 116.614 17.7111 116.8 17.3219 116.928C16.9355 117.055 16.5222 117.119 16.0819 117.119C15.3375 117.119 14.6756 116.938 14.0961 116.574C13.5165 116.21 13.0605 115.693 12.7282 115.023C12.3958 114.352 12.2296 113.557 12.2296 112.636C12.2296 111.716 12.3958 110.92 12.7282 110.25C13.0605 109.58 13.5165 109.062 14.0961 108.699C14.6756 108.335 15.3375 108.153 16.0819 108.153C16.5222 108.153 16.9355 108.217 17.3219 108.345C17.7111 108.473 18.062 108.661 18.3745 108.908C18.687 109.152 18.9483 109.45 19.1586 109.803C19.3688 110.152 19.5137 110.551 19.5932 111ZM21.8123 119.455C21.6419 119.455 21.4899 119.44 21.3564 119.412C21.2228 119.386 21.1305 119.361 21.0794 119.335L21.335 118.449C21.5794 118.511 21.7953 118.534 21.9828 118.517C22.1703 118.5 22.3365 118.416 22.4814 118.266C22.6291 118.118 22.764 117.878 22.8862 117.545L23.0737 117.034L20.6532 110.455H21.7441L23.551 115.67H23.6191L25.426 110.455H26.5169L23.7385 117.955C23.6135 118.293 23.4586 118.572 23.274 118.794C23.0893 119.018 22.8748 119.185 22.6305 119.293C22.389 119.401 22.1163 119.455 21.8123 119.455ZM27.9806 117V108.273H28.9863V111.494H29.0716C29.1454 111.381 29.2477 111.236 29.3784 111.06C29.5119 110.881 29.7022 110.722 29.9494 110.582C30.1994 110.44 30.5375 110.369 30.9636 110.369C31.5147 110.369 32.0005 110.507 32.421 110.783C32.8414 111.058 33.1696 111.449 33.4054 111.955C33.6412 112.46 33.7591 113.057 33.7591 113.744C33.7591 114.438 33.6412 115.038 33.4054 115.547C33.1696 116.053 32.8429 116.445 32.4252 116.723C32.0076 116.999 31.5261 117.136 30.9806 117.136C30.5602 117.136 30.2235 117.067 29.9707 116.928C29.7179 116.786 29.5233 116.625 29.3869 116.446C29.2505 116.264 29.1454 116.114 29.0716 115.994H28.9522V117H27.9806ZM28.9693 113.727C28.9693 114.222 29.0417 114.658 29.1866 115.036C29.3315 115.411 29.5431 115.705 29.8216 115.918C30.1 116.128 30.4409 116.233 30.8443 116.233C31.2647 116.233 31.6156 116.122 31.8968 115.901C32.1809 115.676 32.394 115.375 32.536 114.997C32.6809 114.616 32.7534 114.193 32.7534 113.727C32.7534 113.267 32.6824 112.852 32.5403 112.483C32.4011 112.111 32.1895 111.817 31.9054 111.601C31.6241 111.382 31.2704 111.273 30.8443 111.273C30.4352 111.273 30.0914 111.376 29.813 111.584C29.5346 111.788 29.3244 112.075 29.1824 112.445C29.0403 112.811 28.9693 113.239 28.9693 113.727ZM38.0417 117.136C37.411 117.136 36.867 116.997 36.4096 116.719C35.9551 116.438 35.6042 116.045 35.3571 115.543C35.1127 115.037 34.9906 114.449 34.9906 113.778C34.9906 113.108 35.1127 112.517 35.3571 112.006C35.6042 111.491 35.948 111.091 36.3883 110.804C36.8315 110.514 37.3485 110.369 37.9395 110.369C38.2804 110.369 38.617 110.426 38.9494 110.54C39.2818 110.653 39.5843 110.838 39.8571 111.094C40.1298 111.347 40.3471 111.682 40.5091 112.099C40.671 112.517 40.752 113.031 40.752 113.642V114.068H35.7065V113.199H39.7292C39.7292 112.83 39.6554 112.5 39.5076 112.21C39.3627 111.92 39.1554 111.692 38.8855 111.524C38.6184 111.357 38.3031 111.273 37.9395 111.273C37.5389 111.273 37.1923 111.372 36.8997 111.571C36.6099 111.767 36.3869 112.023 36.2306 112.338C36.0744 112.653 35.9963 112.991 35.9963 113.352V113.932C35.9963 114.426 36.0815 114.845 36.252 115.189C36.4252 115.53 36.6653 115.79 36.9721 115.969C37.2789 116.145 37.6355 116.233 38.0417 116.233C38.3059 116.233 38.5446 116.196 38.7576 116.122C38.9735 116.045 39.1596 115.932 39.3159 115.781C39.4721 115.628 39.5929 115.437 39.6781 115.21L40.6497 115.483C40.5474 115.812 40.3755 116.102 40.1341 116.352C39.8926 116.599 39.5943 116.793 39.2392 116.932C38.8841 117.068 38.4849 117.136 38.0417 117.136ZM42.2818 117V110.455H43.2534V111.443H43.3216C43.4409 111.119 43.6568 110.857 43.9693 110.655C44.2818 110.453 44.6341 110.352 45.0261 110.352C45.1 110.352 45.1923 110.354 45.3031 110.357C45.4139 110.359 45.4977 110.364 45.5545 110.369V111.392C45.5204 111.384 45.4423 111.371 45.3201 111.354C45.2008 111.334 45.0744 111.324 44.9409 111.324C44.6227 111.324 44.3386 111.391 44.0886 111.524C43.8414 111.655 43.6454 111.837 43.5005 112.07C43.3585 112.3 43.2875 112.562 43.2875 112.858V117H42.2818ZM51.383 111.92L50.4796 112.176C50.4228 112.026 50.339 111.879 50.2282 111.737C50.1202 111.592 49.9725 111.473 49.785 111.379C49.5975 111.286 49.3574 111.239 49.0648 111.239C48.6642 111.239 48.3304 111.331 48.0634 111.516C47.7992 111.697 47.6671 111.929 47.6671 112.21C47.6671 112.46 47.758 112.658 47.9398 112.803C48.1216 112.947 48.4057 113.068 48.7921 113.165L49.7637 113.403C50.3489 113.545 50.785 113.763 51.0719 114.055C51.3588 114.345 51.5023 114.719 51.5023 115.176C51.5023 115.551 51.3944 115.886 51.1784 116.182C50.9654 116.477 50.6671 116.71 50.2836 116.881C49.9 117.051 49.454 117.136 48.9455 117.136C48.2779 117.136 47.7253 116.991 47.2878 116.702C46.8503 116.412 46.5733 115.989 46.4569 115.432L47.4114 115.193C47.5023 115.545 47.6742 115.81 47.927 115.986C48.1827 116.162 48.5165 116.25 48.9284 116.25C49.3972 116.25 49.7694 116.151 50.0449 115.952C50.3233 115.75 50.4625 115.509 50.4625 115.227C50.4625 115 50.383 114.81 50.2239 114.656C50.0648 114.5 49.8205 114.384 49.4909 114.307L48.4 114.051C47.8006 113.909 47.3603 113.689 47.079 113.391C46.8006 113.089 46.6614 112.713 46.6614 112.261C46.6614 111.892 46.7651 111.565 46.9725 111.281C47.1827 110.997 47.4682 110.774 47.829 110.612C48.1926 110.45 48.6046 110.369 49.0648 110.369C49.7125 110.369 50.2211 110.511 50.5904 110.795C50.9625 111.08 51.2267 111.455 51.383 111.92ZM55.7605 117.136C55.1298 117.136 54.5858 116.997 54.1284 116.719C53.6738 116.438 53.323 116.045 53.0758 115.543C52.8315 115.037 52.7093 114.449 52.7093 113.778C52.7093 113.108 52.8315 112.517 53.0758 112.006C53.323 111.491 53.6667 111.091 54.1071 110.804C54.5502 110.514 55.0673 110.369 55.6582 110.369C55.9991 110.369 56.3358 110.426 56.6681 110.54C57.0005 110.653 57.3031 110.838 57.5758 111.094C57.8485 111.347 58.0659 111.682 58.2278 112.099C58.3897 112.517 58.4707 113.031 58.4707 113.642V114.068H53.4252V113.199H57.448C57.448 112.83 57.3741 112.5 57.2264 112.21C57.0815 111.92 56.8741 111.692 56.6042 111.524C56.3372 111.357 56.0218 111.273 55.6582 111.273C55.2576 111.273 54.911 111.372 54.6184 111.571C54.3287 111.767 54.1056 112.023 53.9494 112.338C53.7931 112.653 53.715 112.991 53.715 113.352V113.932C53.715 114.426 53.8002 114.845 53.9707 115.189C54.144 115.53 54.3841 115.79 54.6909 115.969C54.9977 116.145 55.3542 116.233 55.7605 116.233C56.0247 116.233 56.2633 116.196 56.4764 116.122C56.6923 116.045 56.8784 115.932 57.0346 115.781C57.1909 115.628 57.3116 115.437 57.3968 115.21L58.3684 115.483C58.2662 115.812 58.0943 116.102 57.8528 116.352C57.6113 116.599 57.313 116.793 56.9579 116.932C56.6028 117.068 56.2037 117.136 55.7605 117.136ZM62.6596 117.136C62.046 117.136 61.5176 116.991 61.0744 116.702C60.6312 116.412 60.2903 116.013 60.0517 115.504C59.813 114.996 59.6937 114.415 59.6937 113.761C59.6937 113.097 59.8159 112.51 60.0602 112.001C60.3074 111.49 60.6511 111.091 61.0914 110.804C61.5346 110.514 62.0517 110.369 62.6426 110.369C63.1028 110.369 63.5176 110.455 63.8869 110.625C64.2562 110.795 64.5588 111.034 64.7946 111.341C65.0304 111.648 65.1767 112.006 65.2335 112.415H64.2278C64.1511 112.116 63.9806 111.852 63.7164 111.622C63.4551 111.389 63.1028 111.273 62.6596 111.273C62.2676 111.273 61.9238 111.375 61.6284 111.58C61.3358 111.781 61.1071 112.067 60.9423 112.436C60.7804 112.803 60.6994 113.233 60.6994 113.727C60.6994 114.233 60.7789 114.673 60.938 115.048C61.1 115.423 61.3272 115.714 61.6199 115.922C61.9153 116.129 62.2619 116.233 62.6596 116.233C62.921 116.233 63.1582 116.188 63.3713 116.097C63.5843 116.006 63.7647 115.875 63.9125 115.705C64.0602 115.534 64.1653 115.33 64.2278 115.091H65.2335C65.1767 115.477 65.036 115.825 64.8116 116.135C64.59 116.442 64.296 116.686 63.9295 116.868C63.5659 117.047 63.1426 117.136 62.6596 117.136ZM70.8287 114.324V110.455H71.8343V117H70.8287V115.892H70.7605C70.6071 116.224 70.3684 116.507 70.0446 116.74C69.7207 116.97 69.3116 117.085 68.8173 117.085C68.4082 117.085 68.0446 116.996 67.7264 116.817C67.4082 116.635 67.1582 116.362 66.9764 115.999C66.7946 115.632 66.7037 115.17 66.7037 114.614V110.455H67.7093V114.545C67.7093 115.023 67.8429 115.403 68.1099 115.688C68.3798 115.972 68.7235 116.114 69.1412 116.114C69.3912 116.114 69.6454 116.05 69.9039 115.922C70.1653 115.794 70.3841 115.598 70.5602 115.334C70.7392 115.07 70.8287 114.733 70.8287 114.324ZM73.6763 117V110.455H74.6479V111.443H74.7161C74.8354 111.119 75.0513 110.857 75.3638 110.655C75.6763 110.453 76.0286 110.352 76.4206 110.352C76.4945 110.352 76.5868 110.354 76.6976 110.357C76.8084 110.359 76.8922 110.364 76.949 110.369V111.392C76.915 111.384 76.8368 111.371 76.7147 111.354C76.5953 111.334 76.4689 111.324 76.3354 111.324C76.0172 111.324 75.7331 111.391 75.4831 111.524C75.236 111.655 75.04 111.837 74.8951 112.07C74.753 112.3 74.682 112.562 74.682 112.858V117H73.6763ZM78.1412 117V110.455H79.1468V117H78.1412ZM78.6525 109.364C78.4565 109.364 78.2875 109.297 78.1454 109.163C78.0062 109.03 77.9366 108.869 77.9366 108.682C77.9366 108.494 78.0062 108.334 78.1454 108.2C78.2875 108.067 78.4565 108 78.6525 108C78.8485 108 79.0162 108.067 79.1554 108.2C79.2974 108.334 79.3684 108.494 79.3684 108.682C79.3684 108.869 79.2974 109.03 79.1554 109.163C79.0162 109.297 78.8485 109.364 78.6525 109.364ZM83.8354 110.455V111.307H80.4434V110.455H83.8354ZM81.432 108.886H82.4377V115.125C82.4377 115.409 82.4789 115.622 82.5613 115.764C82.6465 115.903 82.7544 115.997 82.8851 116.045C83.0186 116.091 83.1593 116.114 83.307 116.114C83.4178 116.114 83.5087 116.108 83.5797 116.097C83.6507 116.082 83.7076 116.071 83.7502 116.062L83.9547 116.966C83.8865 116.991 83.7914 117.017 83.6692 117.043C83.5471 117.071 83.3922 117.085 83.2047 117.085C82.9206 117.085 82.6422 117.024 82.3695 116.902C82.0996 116.78 81.8752 116.594 81.6962 116.344C81.5201 116.094 81.432 115.778 81.432 115.398V108.886ZM85.9959 119.455C85.8255 119.455 85.6735 119.44 85.54 119.412C85.4064 119.386 85.3141 119.361 85.263 119.335L85.5186 118.449C85.763 118.511 85.9789 118.534 86.1664 118.517C86.3539 118.5 86.5201 118.416 86.665 118.266C86.8127 118.118 86.9476 117.878 87.0698 117.545L87.2573 117.034L84.8368 110.455H85.9277L87.7346 115.67H87.8027L89.6096 110.455H90.7005L87.9221 117.955C87.7971 118.293 87.6422 118.572 87.4576 118.794C87.2729 119.018 87.0584 119.185 86.8141 119.293C86.5726 119.401 86.2999 119.455 85.9959 119.455Z" fill="#FF7500"/>
<path d="M102.562 111H101.505C101.443 110.696 101.333 110.429 101.177 110.199C101.024 109.969 100.836 109.776 100.615 109.619C100.396 109.46 100.153 109.341 99.8858 109.261C99.6188 109.182 99.3404 109.142 99.0506 109.142C98.5222 109.142 98.0435 109.276 97.6145 109.543C97.1884 109.81 96.8489 110.203 96.5961 110.723C96.3461 111.243 96.2211 111.881 96.2211 112.636C96.2211 113.392 96.3461 114.03 96.5961 114.55C96.8489 115.07 97.1884 115.463 97.6145 115.73C98.0435 115.997 98.5222 116.131 99.0506 116.131C99.3404 116.131 99.6188 116.091 99.8858 116.011C100.153 115.932 100.396 115.814 100.615 115.658C100.836 115.499 101.024 115.304 101.177 115.074C101.333 114.841 101.443 114.574 101.505 114.273H102.562C102.482 114.719 102.338 115.118 102.127 115.47C101.917 115.822 101.656 116.122 101.343 116.369C101.031 116.614 100.68 116.8 100.291 116.928C99.9043 117.055 99.4909 117.119 99.0506 117.119C98.3063 117.119 97.6444 116.938 97.0648 116.574C96.4853 116.21 96.0293 115.693 95.6969 115.023C95.3645 114.352 95.1983 113.557 95.1983 112.636C95.1983 111.716 95.3645 110.92 95.6969 110.25C96.0293 109.58 96.4853 109.062 97.0648 108.699C97.6444 108.335 98.3063 108.153 99.0506 108.153C99.4909 108.153 99.9043 108.217 100.291 108.345C100.68 108.473 101.031 108.661 101.343 108.908C101.656 109.152 101.917 109.45 102.127 109.803C102.338 110.152 102.482 110.551 102.562 111ZM105.139 108.273V117H104.133V108.273H105.139ZM111.106 114.324V110.455H112.112V117H111.106V115.892H111.038C110.884 116.224 110.646 116.507 110.322 116.74C109.998 116.97 109.589 117.085 109.095 117.085C108.686 117.085 108.322 116.996 108.004 116.817C107.686 116.635 107.436 116.362 107.254 115.999C107.072 115.632 106.981 115.17 106.981 114.614V110.455H107.987V114.545C107.987 115.023 108.12 115.403 108.387 115.688C108.657 115.972 109.001 116.114 109.419 116.114C109.669 116.114 109.923 116.05 110.181 115.922C110.443 115.794 110.661 115.598 110.838 115.334C111.017 115.07 111.106 114.733 111.106 114.324ZM114.09 117V108.273H115.096V111.494H115.181C115.255 111.381 115.357 111.236 115.488 111.06C115.621 110.881 115.812 110.722 116.059 110.582C116.309 110.44 116.647 110.369 117.073 110.369C117.624 110.369 118.11 110.507 118.53 110.783C118.951 111.058 119.279 111.449 119.515 111.955C119.751 112.46 119.868 113.057 119.868 113.744C119.868 114.438 119.751 115.038 119.515 115.547C119.279 116.053 118.952 116.445 118.535 116.723C118.117 116.999 117.635 117.136 117.09 117.136C116.67 117.136 116.333 117.067 116.08 116.928C115.827 116.786 115.633 116.625 115.496 116.446C115.36 116.264 115.255 116.114 115.181 115.994H115.062V117H114.09ZM115.079 113.727C115.079 114.222 115.151 114.658 115.296 115.036C115.441 115.411 115.653 115.705 115.931 115.918C116.209 116.128 116.55 116.233 116.954 116.233C117.374 116.233 117.725 116.122 118.006 115.901C118.29 115.676 118.503 115.375 118.645 114.997C118.79 114.616 118.863 114.193 118.863 113.727C118.863 113.267 118.792 112.852 118.65 112.483C118.51 112.111 118.299 111.817 118.015 111.601C117.733 111.382 117.38 111.273 116.954 111.273C116.545 111.273 116.201 111.376 115.922 111.584C115.644 111.788 115.434 112.075 115.292 112.445C115.15 112.811 115.079 113.239 115.079 113.727ZM0.815938 122.47V122.2H3.65594C4.31594 122.2 4.81927 122.367 5.16594 122.7C5.5126 123.027 5.68594 123.463 5.68594 124.01V124.3C5.68594 124.847 5.5126 125.287 5.16594 125.62C4.81927 125.953 4.31594 126.12 3.65594 126.12H2.45594V128.19C2.45594 128.423 2.46594 128.563 2.48594 128.61C2.50594 128.65 2.56927 128.673 2.67594 128.68L3.42594 128.74V129H0.815938V128.74L1.36594 128.68C1.4726 128.667 1.53594 128.64 1.55594 128.6C1.57594 128.56 1.58594 128.423 1.58594 128.19V123.01C1.58594 122.777 1.57594 122.64 1.55594 122.6C1.53594 122.56 1.4726 122.533 1.36594 122.52L0.815938 122.47ZM3.65594 122.52H2.45594V125.8H3.65594C4.39594 125.8 4.76594 125.347 4.76594 124.44V123.87C4.76594 122.97 4.39594 122.52 3.65594 122.52ZM6.42813 124.32V124.05H7.96813V124.85C8.20146 124.537 8.43479 124.31 8.66813 124.17C8.90813 124.023 9.15146 123.95 9.39813 123.95C9.61146 123.95 9.81146 124.013 9.99813 124.14C10.1848 124.267 10.3415 124.47 10.4681 124.75L9.81813 125.14C9.71813 124.9 9.60479 124.733 9.47813 124.64C9.35146 124.547 9.21146 124.5 9.05813 124.5C8.89146 124.5 8.72479 124.553 8.55813 124.66C8.39813 124.767 8.21813 124.967 8.01813 125.26V128.19C8.01813 128.423 8.02813 128.563 8.04813 128.61C8.06813 128.65 8.13146 128.673 8.23813 128.68L8.98813 128.74V129H6.42813V128.74L6.97813 128.68C7.08479 128.667 7.14813 128.64 7.16813 128.6C7.18813 128.56 7.19813 128.423 7.19813 128.19V124.86C7.19813 124.627 7.18813 124.49 7.16813 124.45C7.14813 124.41 7.08479 124.383 6.97813 124.37L6.42813 124.32ZM15.0241 127.86C14.9041 128.313 14.6774 128.633 14.3441 128.82C14.0174 129.007 13.6541 129.1 13.2541 129.1C12.5141 129.1 11.9607 128.877 11.5941 128.43C11.2274 127.977 11.0441 127.373 11.0441 126.62V126.42C11.0441 125.673 11.2207 125.077 11.5741 124.63C11.9274 124.177 12.4407 123.95 13.1141 123.95C13.4741 123.95 13.8007 124.023 14.0941 124.17C14.3941 124.317 14.6307 124.533 14.8041 124.82C14.9841 125.107 15.0741 125.463 15.0741 125.89C15.0741 126.09 15.0541 126.3 15.0141 126.52H11.9441V126.82C11.9441 127.52 12.0507 128.023 12.2641 128.33C12.4841 128.63 12.8374 128.78 13.3241 128.78C13.6307 128.78 13.8841 128.7 14.0841 128.54C14.2907 128.38 14.4274 128.103 14.4941 127.71L15.0241 127.86ZM13.1141 124.27C12.7207 124.27 12.4274 124.42 12.2341 124.72C12.0407 125.02 11.9441 125.513 11.9441 126.2H14.1941V126.17C14.2074 126.083 14.2174 126 14.2241 125.92C14.2307 125.833 14.2341 125.757 14.2341 125.69C14.2341 125.19 14.1307 124.83 13.9241 124.61C13.7174 124.383 13.4474 124.27 13.1141 124.27ZM18.128 126.98L17.518 126.83C16.6846 126.617 16.268 126.137 16.268 125.39C16.268 125.143 16.3246 124.91 16.438 124.69C16.5513 124.47 16.7313 124.293 16.978 124.16C17.2313 124.02 17.5546 123.95 17.948 123.95C18.388 123.95 18.7413 124.023 19.008 124.17C19.2746 124.317 19.4613 124.507 19.568 124.74C19.6746 124.973 19.708 125.227 19.668 125.5L18.888 125.64C18.968 125.207 18.9213 124.87 18.748 124.63C18.5813 124.39 18.3046 124.27 17.918 124.27C17.618 124.27 17.378 124.347 17.198 124.5C17.018 124.647 16.928 124.863 16.928 125.15C16.928 125.363 16.9946 125.553 17.128 125.72C17.2613 125.88 17.4846 126 17.798 126.08L18.428 126.23C18.868 126.337 19.208 126.507 19.448 126.74C19.6946 126.973 19.818 127.28 19.818 127.66C19.818 128.087 19.6613 128.433 19.348 128.7C19.0413 128.967 18.6013 129.1 18.028 129.1C17.7546 129.1 17.488 129.06 17.228 128.98C16.9746 128.893 16.7513 128.76 16.558 128.58C16.3713 128.393 16.2346 128.153 16.148 127.86L16.708 127.66C16.7813 128.08 16.9413 128.373 17.188 128.54C17.4346 128.707 17.718 128.79 18.038 128.79C18.2246 128.79 18.4013 128.76 18.568 128.7C18.7413 128.64 18.8813 128.547 18.988 128.42C19.0946 128.287 19.148 128.117 19.148 127.91C19.148 127.697 19.0746 127.513 18.928 127.36C18.7813 127.207 18.5146 127.08 18.128 126.98ZM21.9243 122.93C21.7643 122.93 21.631 122.88 21.5243 122.78C21.4243 122.673 21.3743 122.537 21.3743 122.37C21.3743 122.21 21.4243 122.08 21.5243 121.98C21.631 121.88 21.7643 121.83 21.9243 121.83C22.0843 121.83 22.2143 121.88 22.3143 121.98C22.421 122.08 22.4743 122.21 22.4743 122.37C22.4743 122.537 22.421 122.673 22.3143 122.78C22.2143 122.88 22.0843 122.93 21.9243 122.93ZM20.7543 124.32V124.05H22.3443V128.19C22.3443 128.423 22.3543 128.56 22.3743 128.6C22.3943 128.64 22.4576 128.667 22.5643 128.68L23.1143 128.74V129H20.7543V128.74L21.3043 128.68C21.411 128.667 21.4743 128.64 21.4943 128.6C21.5143 128.56 21.5243 128.423 21.5243 128.19V124.86C21.5243 124.627 21.5143 124.49 21.4943 124.45C21.4743 124.41 21.411 124.383 21.3043 124.37L20.7543 124.32ZM28.9126 128.75V129H27.3726V128.21C27.1659 128.517 26.9359 128.743 26.6826 128.89C26.4359 129.03 26.1592 129.1 25.8526 129.1C25.2792 129.1 24.8326 128.887 24.5126 128.46C24.1992 128.027 24.0426 127.417 24.0426 126.63V126.43C24.0426 125.677 24.2259 125.077 24.5926 124.63C24.9659 124.177 25.4759 123.95 26.1226 123.95C26.5959 123.95 26.9959 124.097 27.3226 124.39V122.41C27.3226 122.177 27.3126 122.04 27.2926 122C27.2726 121.96 27.2092 121.933 27.1026 121.92L26.5526 121.87V121.6H28.1426V128.19C28.1426 128.423 28.1526 128.56 28.1726 128.6C28.1926 128.64 28.2559 128.667 28.3626 128.68L28.9126 128.75ZM24.9426 126.93C24.9426 127.557 25.0326 128.017 25.2126 128.31C25.3992 128.603 25.6559 128.75 25.9826 128.75C26.1959 128.75 26.4159 128.683 26.6426 128.55C26.8692 128.417 27.0959 128.147 27.3226 127.74V124.88C27.0292 124.487 26.6459 124.29 26.1726 124.29C25.7459 124.29 25.4326 124.453 25.2326 124.78C25.0392 125.107 24.9426 125.557 24.9426 126.13V126.93ZM33.8034 127.86C33.6834 128.313 33.4567 128.633 33.1234 128.82C32.7967 129.007 32.4334 129.1 32.0334 129.1C31.2934 129.1 30.74 128.877 30.3734 128.43C30.0067 127.977 29.8234 127.373 29.8234 126.62V126.42C29.8234 125.673 30 125.077 30.3534 124.63C30.7067 124.177 31.22 123.95 31.8934 123.95C32.2534 123.95 32.58 124.023 32.8734 124.17C33.1734 124.317 33.41 124.533 33.5834 124.82C33.7634 125.107 33.8534 125.463 33.8534 125.89C33.8534 126.09 33.8334 126.3 33.7934 126.52H30.7234V126.82C30.7234 127.52 30.83 128.023 31.0434 128.33C31.2634 128.63 31.6167 128.78 32.1034 128.78C32.41 128.78 32.6634 128.7 32.8634 128.54C33.07 128.38 33.2067 128.103 33.2734 127.71L33.8034 127.86ZM31.8934 124.27C31.5 124.27 31.2067 124.42 31.0134 124.72C30.82 125.02 30.7234 125.513 30.7234 126.2H32.9734V126.17C32.9867 126.083 32.9967 126 33.0034 125.92C33.01 125.833 33.0134 125.757 33.0134 125.69C33.0134 125.19 32.91 124.83 32.7034 124.61C32.4967 124.383 32.2267 124.27 31.8934 124.27ZM40.3873 128.74V129H38.0273V128.74L38.5773 128.68C38.6839 128.667 38.7473 128.64 38.7673 128.6C38.7873 128.56 38.7973 128.423 38.7973 128.19V125.7C38.7973 125.207 38.7173 124.86 38.5573 124.66C38.3973 124.453 38.1673 124.35 37.8673 124.35C37.6473 124.35 37.4039 124.417 37.1373 124.55C36.8706 124.683 36.6206 124.943 36.3873 125.33V128.19C36.3873 128.423 36.3973 128.56 36.4173 128.6C36.4373 128.64 36.5006 128.667 36.6073 128.68L37.1573 128.74V129H34.7973V128.74L35.3473 128.68C35.4539 128.667 35.5173 128.64 35.5373 128.6C35.5573 128.56 35.5673 128.423 35.5673 128.19V124.86C35.5673 124.627 35.5573 124.49 35.5373 124.45C35.5173 124.41 35.4539 124.383 35.3473 124.37L34.7973 124.32V124.05H36.3373V124.86C36.5773 124.54 36.8473 124.31 37.1473 124.17C37.4539 124.023 37.7606 123.95 38.0673 123.95C38.5606 123.95 38.9406 124.103 39.2073 124.41C39.4806 124.71 39.6173 125.137 39.6173 125.69V128.19C39.6173 128.423 39.6273 128.56 39.6473 128.6C39.6673 128.64 39.7306 128.667 39.8373 128.68L40.3873 128.74ZM44.2691 127.98C44.1691 128.367 44.0125 128.65 43.7991 128.83C43.5858 129.01 43.3125 129.1 42.9791 129.1C42.6591 129.1 42.3991 129.03 42.1991 128.89C41.9991 128.743 41.8525 128.553 41.7591 128.32C41.6658 128.087 41.6191 127.843 41.6191 127.59V124.86C41.6191 124.627 41.6091 124.49 41.5891 124.45C41.5758 124.41 41.5125 124.383 41.3991 124.37L40.8491 124.32V124.05H41.6191V122.74L42.4391 122.57V124.05H44.0691V124.37H42.4391V127.67C42.4391 128.09 42.4958 128.38 42.6091 128.54C42.7291 128.7 42.8858 128.78 43.0791 128.78C43.2725 128.78 43.4191 128.707 43.5191 128.56C43.6258 128.413 43.7025 128.173 43.7491 127.84L44.2691 127.98ZM46.0063 122.93C45.8463 122.93 45.713 122.88 45.6063 122.78C45.5063 122.673 45.4563 122.537 45.4563 122.37C45.4563 122.21 45.5063 122.08 45.6063 121.98C45.713 121.88 45.8463 121.83 46.0063 121.83C46.1663 121.83 46.2963 121.88 46.3963 121.98C46.503 122.08 46.5563 122.21 46.5563 122.37C46.5563 122.537 46.503 122.673 46.3963 122.78C46.2963 122.88 46.1663 122.93 46.0063 122.93ZM44.8363 124.32V124.05H46.4263V128.19C46.4263 128.423 46.4363 128.56 46.4563 128.6C46.4763 128.64 46.5397 128.667 46.6463 128.68L47.1963 128.74V129H44.8363V128.74L45.3863 128.68C45.493 128.667 45.5563 128.64 45.5763 128.6C45.5963 128.56 45.6063 128.423 45.6063 128.19V124.86C45.6063 124.627 45.5963 124.49 45.5763 124.45C45.5563 124.41 45.493 124.383 45.3863 124.37L44.8363 124.32ZM51.9446 129.07C51.4246 129.07 51.1179 128.83 51.0246 128.35C50.7913 128.617 50.5346 128.81 50.2546 128.93C49.9746 129.043 49.6979 129.1 49.4246 129.1C48.9579 129.1 48.6146 128.97 48.3946 128.71C48.1746 128.45 48.0646 128.137 48.0646 127.77C48.0646 127.377 48.1979 127.067 48.4646 126.84C48.7379 126.607 49.2079 126.49 49.8746 126.49H51.0046V125.68C51.0046 125.147 50.9113 124.78 50.7246 124.58C50.5446 124.373 50.2979 124.27 49.9846 124.27C49.7846 124.27 49.6046 124.31 49.4446 124.39C49.2846 124.47 49.1679 124.617 49.0946 124.83C49.0279 125.037 49.0213 125.34 49.0746 125.74L48.2846 125.62C48.2513 125.307 48.2913 125.027 48.4046 124.78C48.5246 124.527 48.7179 124.327 48.9846 124.18C49.2579 124.027 49.5979 123.95 50.0046 123.95C50.4913 123.95 50.8646 124.033 51.1246 124.2C51.3846 124.36 51.5646 124.57 51.6646 124.83C51.7713 125.09 51.8246 125.373 51.8246 125.68V127.93C51.8246 128.27 51.8613 128.483 51.9346 128.57C52.0146 128.657 52.1013 128.7 52.1946 128.7C52.2546 128.7 52.3179 128.687 52.3846 128.66C52.4513 128.627 52.5246 128.577 52.6046 128.51L52.7846 128.76C52.6846 128.847 52.5646 128.92 52.4246 128.98C52.2913 129.04 52.1313 129.07 51.9446 129.07ZM49.7046 128.68C49.8913 128.68 50.0913 128.63 50.3046 128.53C50.5246 128.423 50.7579 128.213 51.0046 127.9V126.81H49.9846C49.6113 126.81 49.3379 126.887 49.1646 127.04C48.9979 127.187 48.9146 127.417 48.9146 127.73C48.9146 128.03 48.9779 128.263 49.1046 128.43C49.2379 128.597 49.4379 128.68 49.7046 128.68ZM53.155 121.87V121.6H54.745V128.19C54.745 128.423 54.755 128.56 54.775 128.6C54.795 128.64 54.8583 128.667 54.965 128.68L55.515 128.74V129H53.155V128.74L53.705 128.68C53.8117 128.667 53.875 128.64 53.895 128.6C53.915 128.56 53.925 128.423 53.925 128.19V122.41C53.925 122.177 53.915 122.04 53.895 122C53.875 121.96 53.8117 121.933 53.705 121.92L53.155 121.87ZM58.5503 122.47V122.2H61.2703C61.9236 122.2 62.4136 122.353 62.7403 122.66C63.067 122.96 63.2303 123.347 63.2303 123.82V124.09C63.2303 124.437 63.127 124.733 62.9203 124.98C62.7136 125.227 62.4236 125.4 62.0503 125.5C62.517 125.58 62.8803 125.757 63.1403 126.03C63.4003 126.303 63.5303 126.647 63.5303 127.06V127.33C63.5303 127.817 63.3603 128.217 63.0203 128.53C62.687 128.843 62.187 129 61.5203 129H58.5503V128.74L59.1003 128.68C59.207 128.667 59.2703 128.64 59.2903 128.6C59.3103 128.56 59.3203 128.423 59.3203 128.19V123.01C59.3203 122.777 59.3103 122.64 59.2903 122.6C59.2703 122.56 59.207 122.533 59.1003 122.52L58.5503 122.47ZM61.2703 122.52H60.1903V125.38H61.2703C61.9636 125.38 62.3103 124.977 62.3103 124.17V123.76C62.3103 122.933 61.9636 122.52 61.2703 122.52ZM61.5203 125.7H60.1903V128.68H61.5203C62.247 128.68 62.6103 128.25 62.6103 127.39V126.98C62.6103 126.567 62.517 126.25 62.3303 126.03C62.1503 125.81 61.8803 125.7 61.5203 125.7ZM69.825 128.74V129H68.285V128.2C68.0517 128.513 67.785 128.743 67.485 128.89C67.1917 129.03 66.8983 129.1 66.605 129.1C66.1317 129.1 65.7617 128.95 65.495 128.65C65.235 128.343 65.105 127.913 65.105 127.36V124.86C65.105 124.627 65.095 124.49 65.075 124.45C65.055 124.41 64.9917 124.383 64.885 124.37L64.335 124.32V124.05H65.925V127.35C65.925 127.843 65.9983 128.193 66.145 128.4C66.2983 128.6 66.5183 128.7 66.805 128.7C67.0183 128.7 67.2517 128.633 67.505 128.5C67.765 128.367 68.0083 128.11 68.235 127.73V124.86C68.235 124.627 68.225 124.49 68.205 124.45C68.185 124.403 68.1217 124.377 68.015 124.37L67.265 124.32V124.05H69.055V128.19C69.055 128.423 69.065 128.56 69.085 128.6C69.105 128.64 69.1683 128.667 69.275 128.68L69.825 128.74ZM72.5713 126.98L71.9613 126.83C71.128 126.617 70.7113 126.137 70.7113 125.39C70.7113 125.143 70.768 124.91 70.8813 124.69C70.9947 124.47 71.1747 124.293 71.4213 124.16C71.6747 124.02 71.998 123.95 72.3913 123.95C72.8313 123.95 73.1847 124.023 73.4513 124.17C73.718 124.317 73.9047 124.507 74.0113 124.74C74.118 124.973 74.1513 125.227 74.1113 125.5L73.3313 125.64C73.4113 125.207 73.3647 124.87 73.1913 124.63C73.0247 124.39 72.748 124.27 72.3613 124.27C72.0613 124.27 71.8213 124.347 71.6413 124.5C71.4613 124.647 71.3713 124.863 71.3713 125.15C71.3713 125.363 71.438 125.553 71.5713 125.72C71.7047 125.88 71.928 126 72.2413 126.08L72.8713 126.23C73.3113 126.337 73.6513 126.507 73.8913 126.74C74.138 126.973 74.2613 127.28 74.2613 127.66C74.2613 128.087 74.1047 128.433 73.7913 128.7C73.4847 128.967 73.0447 129.1 72.4713 129.1C72.198 129.1 71.9313 129.06 71.6713 128.98C71.418 128.893 71.1947 128.76 71.0013 128.58C70.8147 128.393 70.678 128.153 70.5913 127.86L71.1513 127.66C71.2247 128.08 71.3847 128.373 71.6313 128.54C71.878 128.707 72.1613 128.79 72.4813 128.79C72.668 128.79 72.8447 128.76 73.0113 128.7C73.1847 128.64 73.3247 128.547 73.4313 128.42C73.538 128.287 73.5913 128.117 73.5913 127.91C73.5913 127.697 73.518 127.513 73.3713 127.36C73.2247 127.207 72.958 127.08 72.5713 126.98ZM76.3677 122.93C76.2077 122.93 76.0743 122.88 75.9677 122.78C75.8677 122.673 75.8177 122.537 75.8177 122.37C75.8177 122.21 75.8677 122.08 75.9677 121.98C76.0743 121.88 76.2077 121.83 76.3677 121.83C76.5277 121.83 76.6577 121.88 76.7577 121.98C76.8643 122.08 76.9177 122.21 76.9177 122.37C76.9177 122.537 76.8643 122.673 76.7577 122.78C76.6577 122.88 76.5277 122.93 76.3677 122.93ZM75.1977 124.32V124.05H76.7877V128.19C76.7877 128.423 76.7977 128.56 76.8177 128.6C76.8377 128.64 76.901 128.667 77.0077 128.68L77.5577 128.74V129H75.1977V128.74L75.7477 128.68C75.8543 128.667 75.9177 128.64 75.9377 128.6C75.9577 128.56 75.9677 128.423 75.9677 128.19V124.86C75.9677 124.627 75.9577 124.49 75.9377 124.45C75.9177 124.41 75.8543 124.383 75.7477 124.37L75.1977 124.32ZM83.7759 128.74V129H81.4159V128.74L81.9659 128.68C82.0726 128.667 82.1359 128.64 82.1559 128.6C82.1759 128.56 82.1859 128.423 82.1859 128.19V125.7C82.1859 125.207 82.1059 124.86 81.9459 124.66C81.7859 124.453 81.5559 124.35 81.2559 124.35C81.0359 124.35 80.7926 124.417 80.5259 124.55C80.2593 124.683 80.0093 124.943 79.7759 125.33V128.19C79.7759 128.423 79.7859 128.56 79.8059 128.6C79.8259 128.64 79.8893 128.667 79.9959 128.68L80.5459 128.74V129H78.1859V128.74L78.7359 128.68C78.8426 128.667 78.9059 128.64 78.9259 128.6C78.9459 128.56 78.9559 128.423 78.9559 128.19V124.86C78.9559 124.627 78.9459 124.49 78.9259 124.45C78.9059 124.41 78.8426 124.383 78.7359 124.37L78.1859 124.32V124.05H79.7259V124.86C79.9659 124.54 80.2359 124.31 80.5359 124.17C80.8426 124.023 81.1493 123.95 81.4559 123.95C81.9493 123.95 82.3293 124.103 82.5959 124.41C82.8693 124.71 83.0059 125.137 83.0059 125.69V128.19C83.0059 128.423 83.0159 128.56 83.0359 128.6C83.0559 128.64 83.1193 128.667 83.2259 128.68L83.7759 128.74ZM88.6178 127.86C88.4978 128.313 88.2711 128.633 87.9378 128.82C87.6111 129.007 87.2478 129.1 86.8478 129.1C86.1078 129.1 85.5545 128.877 85.1878 128.43C84.8211 127.977 84.6378 127.373 84.6378 126.62V126.42C84.6378 125.673 84.8145 125.077 85.1678 124.63C85.5211 124.177 86.0345 123.95 86.7078 123.95C87.0678 123.95 87.3945 124.023 87.6878 124.17C87.9878 124.317 88.2245 124.533 88.3978 124.82C88.5778 125.107 88.6678 125.463 88.6678 125.89C88.6678 126.09 88.6478 126.3 88.6078 126.52H85.5378V126.82C85.5378 127.52 85.6445 128.023 85.8578 128.33C86.0778 128.63 86.4311 128.78 86.9178 128.78C87.2245 128.78 87.4778 128.7 87.6778 128.54C87.8845 128.38 88.0211 128.103 88.0878 127.71L88.6178 127.86ZM86.7078 124.27C86.3145 124.27 86.0211 124.42 85.8278 124.72C85.6345 125.02 85.5378 125.513 85.5378 126.2H87.7878V126.17C87.8011 126.083 87.8111 126 87.8178 125.92C87.8245 125.833 87.8278 125.757 87.8278 125.69C87.8278 125.19 87.7245 124.83 87.5178 124.61C87.3111 124.383 87.0411 124.27 86.7078 124.27ZM91.7217 126.98L91.1117 126.83C90.2784 126.617 89.8617 126.137 89.8617 125.39C89.8617 125.143 89.9184 124.91 90.0317 124.69C90.1451 124.47 90.3251 124.293 90.5717 124.16C90.8251 124.02 91.1484 123.95 91.5417 123.95C91.9817 123.95 92.3351 124.023 92.6017 124.17C92.8684 124.317 93.0551 124.507 93.1617 124.74C93.2684 124.973 93.3017 125.227 93.2617 125.5L92.4817 125.64C92.5617 125.207 92.5151 124.87 92.3417 124.63C92.1751 124.39 91.8984 124.27 91.5117 124.27C91.2117 124.27 90.9717 124.347 90.7917 124.5C90.6117 124.647 90.5217 124.863 90.5217 125.15C90.5217 125.363 90.5884 125.553 90.7217 125.72C90.8551 125.88 91.0784 126 91.3917 126.08L92.0217 126.23C92.4617 126.337 92.8017 126.507 93.0417 126.74C93.2884 126.973 93.4117 127.28 93.4117 127.66C93.4117 128.087 93.2551 128.433 92.9417 128.7C92.6351 128.967 92.1951 129.1 91.6217 129.1C91.3484 129.1 91.0817 129.06 90.8217 128.98C90.5684 128.893 90.3451 128.76 90.1517 128.58C89.9651 128.393 89.8284 128.153 89.7417 127.86L90.3017 127.66C90.3751 128.08 90.5351 128.373 90.7817 128.54C91.0284 128.707 91.3117 128.79 91.6317 128.79C91.8184 128.79 91.9951 128.76 92.1617 128.7C92.3351 128.64 92.4751 128.547 92.5817 128.42C92.6884 128.287 92.7417 128.117 92.7417 127.91C92.7417 127.697 92.6684 127.513 92.5217 127.36C92.3751 127.207 92.1084 127.08 91.7217 126.98ZM96.458 126.98L95.848 126.83C95.0147 126.617 94.598 126.137 94.598 125.39C94.598 125.143 94.6547 124.91 94.768 124.69C94.8814 124.47 95.0614 124.293 95.308 124.16C95.5614 124.02 95.8847 123.95 96.278 123.95C96.718 123.95 97.0714 124.023 97.338 124.17C97.6047 124.317 97.7914 124.507 97.898 124.74C98.0047 124.973 98.038 125.227 97.998 125.5L97.218 125.64C97.298 125.207 97.2514 124.87 97.078 124.63C96.9114 124.39 96.6347 124.27 96.248 124.27C95.948 124.27 95.708 124.347 95.528 124.5C95.348 124.647 95.258 124.863 95.258 125.15C95.258 125.363 95.3247 125.553 95.458 125.72C95.5914 125.88 95.8147 126 96.128 126.08L96.758 126.23C97.198 126.337 97.538 126.507 97.778 126.74C98.0247 126.973 98.148 127.28 98.148 127.66C98.148 128.087 97.9914 128.433 97.678 128.7C97.3714 128.967 96.9314 129.1 96.358 129.1C96.0847 129.1 95.818 129.06 95.558 128.98C95.3047 128.893 95.0814 128.76 94.888 128.58C94.7014 128.393 94.5647 128.153 94.478 127.86L95.038 127.66C95.1114 128.08 95.2714 128.373 95.518 128.54C95.7647 128.707 96.048 128.79 96.368 128.79C96.5547 128.79 96.7314 128.76 96.898 128.7C97.0714 128.64 97.2114 128.547 97.318 128.42C97.4247 128.287 97.478 128.117 97.478 127.91C97.478 127.697 97.4047 127.513 97.258 127.36C97.1114 127.207 96.8447 127.08 96.458 126.98ZM103.7 128.78C104.147 128.78 104.507 128.67 104.78 128.45C105.06 128.23 105.2 127.907 105.2 127.48C105.2 127.14 105.097 126.857 104.89 126.63C104.683 126.397 104.323 126.21 103.81 126.07L103.12 125.87C102.613 125.73 102.227 125.493 101.96 125.16C101.693 124.827 101.56 124.42 101.56 123.94C101.56 123.62 101.633 123.32 101.78 123.04C101.933 122.76 102.163 122.533 102.47 122.36C102.783 122.187 103.18 122.1 103.66 122.1C104.193 122.1 104.623 122.2 104.95 122.4C105.277 122.593 105.503 122.847 105.63 123.16C105.757 123.473 105.787 123.81 105.72 124.17L104.88 124.35C104.967 123.73 104.903 123.253 104.69 122.92C104.483 122.587 104.123 122.42 103.61 122.42C103.203 122.42 102.883 122.53 102.65 122.75C102.417 122.963 102.3 123.277 102.3 123.69C102.3 124.017 102.393 124.297 102.58 124.53C102.767 124.757 103.097 124.937 103.57 125.07L104.26 125.27C105.373 125.577 105.93 126.227 105.93 127.22C105.93 127.573 105.847 127.893 105.68 128.18C105.52 128.46 105.273 128.683 104.94 128.85C104.613 129.017 104.2 129.1 103.7 129.1C103.353 129.1 103.02 129.047 102.7 128.94C102.387 128.833 102.117 128.65 101.89 128.39C101.67 128.13 101.523 127.77 101.45 127.31L102.05 127.11C102.083 127.55 102.18 127.89 102.34 128.13C102.5 128.37 102.7 128.54 102.94 128.64C103.18 128.733 103.433 128.78 103.7 128.78ZM109.169 124.27C108.802 124.27 108.515 124.423 108.309 124.73C108.109 125.03 108.009 125.527 108.009 126.22V126.82C108.009 127.52 108.109 128.023 108.309 128.33C108.515 128.63 108.849 128.78 109.309 128.78C109.622 128.78 109.875 128.7 110.069 128.54C110.262 128.38 110.392 128.103 110.459 127.71L110.989 127.86C110.869 128.313 110.649 128.633 110.329 128.82C110.009 129.007 109.652 129.1 109.259 129.1C108.539 129.1 107.999 128.877 107.639 128.43C107.285 127.977 107.109 127.373 107.109 126.62V126.42C107.109 125.673 107.285 125.077 107.639 124.63C107.992 124.177 108.502 123.95 109.169 123.95C109.595 123.95 109.949 124.033 110.229 124.2C110.515 124.367 110.719 124.593 110.839 124.88C110.959 125.16 110.992 125.47 110.939 125.81L110.149 125.93C110.222 125.397 110.172 124.987 109.999 124.7C109.832 124.413 109.555 124.27 109.169 124.27ZM117.368 128.74V129H115.008V128.74L115.558 128.68C115.665 128.667 115.728 128.64 115.748 128.6C115.768 128.56 115.778 128.423 115.778 128.19V125.7C115.778 125.207 115.698 124.86 115.538 124.66C115.378 124.453 115.151 124.35 114.858 124.35C114.631 124.35 114.385 124.417 114.118 124.55C113.851 124.683 113.601 124.947 113.368 125.34V128.19C113.368 128.423 113.378 128.56 113.398 128.6C113.418 128.64 113.481 128.667 113.588 128.68L114.138 128.74V129H111.778V128.74L112.328 128.68C112.435 128.667 112.498 128.64 112.518 128.6C112.538 128.56 112.548 128.423 112.548 128.19V122.41C112.548 122.177 112.538 122.04 112.518 122C112.498 121.96 112.435 121.933 112.328 121.92L111.778 121.87V121.6H113.368V124.81C113.601 124.51 113.868 124.293 114.168 124.16C114.468 124.02 114.765 123.95 115.058 123.95C115.551 123.95 115.931 124.103 116.198 124.41C116.465 124.71 116.598 125.137 116.598 125.69V128.19C116.598 128.423 116.608 128.56 116.628 128.6C116.648 128.64 116.711 128.667 116.818 128.68L117.368 128.74ZM122.552 126.42V126.62C122.552 127.373 122.362 127.977 121.982 128.43C121.608 128.877 121.075 129.1 120.382 129.1C119.695 129.1 119.162 128.877 118.782 128.43C118.408 127.977 118.222 127.373 118.222 126.62V126.42C118.222 125.673 118.408 125.077 118.782 124.63C119.155 124.177 119.688 123.95 120.382 123.95C121.075 123.95 121.608 124.177 121.982 124.63C122.362 125.077 122.552 125.673 122.552 126.42ZM121.652 126.22C121.652 125.527 121.542 125.03 121.322 124.73C121.108 124.423 120.795 124.27 120.382 124.27C119.975 124.27 119.662 124.423 119.442 124.73C119.228 125.03 119.122 125.527 119.122 126.22V126.82C119.122 127.52 119.228 128.023 119.442 128.33C119.662 128.63 119.975 128.78 120.382 128.78C120.795 128.78 121.108 128.63 121.322 128.33C121.542 128.023 121.652 127.52 121.652 126.82V126.22ZM128.118 126.42V126.62C128.118 127.373 127.928 127.977 127.548 128.43C127.175 128.877 126.641 129.1 125.948 129.1C125.261 129.1 124.728 128.877 124.348 128.43C123.975 127.977 123.788 127.373 123.788 126.62V126.42C123.788 125.673 123.975 125.077 124.348 124.63C124.721 124.177 125.255 123.95 125.948 123.95C126.641 123.95 127.175 124.177 127.548 124.63C127.928 125.077 128.118 125.673 128.118 126.42ZM127.218 126.22C127.218 125.527 127.108 125.03 126.888 124.73C126.675 124.423 126.361 124.27 125.948 124.27C125.541 124.27 125.228 124.423 125.008 124.73C124.795 125.03 124.688 125.527 124.688 126.22V126.82C124.688 127.52 124.795 128.023 125.008 128.33C125.228 128.63 125.541 128.78 125.948 128.78C126.361 128.78 126.675 128.63 126.888 128.33C127.108 128.023 127.218 127.52 127.218 126.82V126.22ZM129.014 121.87V121.6H130.604V128.19C130.604 128.423 130.614 128.56 130.634 128.6C130.654 128.64 130.718 128.667 130.824 128.68L131.374 128.74V129H129.014V128.74L129.564 128.68C129.671 128.667 129.734 128.64 129.754 128.6C129.774 128.56 129.784 128.423 129.784 128.19V122.41C129.784 122.177 129.774 122.04 129.754 122C129.734 121.96 129.671 121.933 129.564 121.92L129.014 121.87Z" fill="#2E3192"/>
</svg>
