<svg width="36" height="40" viewBox="0 0 36 40" fill="none" xmlns="http://www.w3.org/2000/svg">
<path d="M18 1.5L20 2.5L26 5L34.5 6V19H18V1.5Z" fill="white"/>
<path d="M2.5 19.5L18 19L18.5 39L8.4881 30.5L4 24.5L2.5 19.5Z" fill="white"/>
<path d="M1 5.1L9.75758 4.58571L18 1.5V19.5H1.5L1 5.1Z" fill="#2E3192"/>
<path d="M18 19H34L31.5 25.1538L28 30.7949L23.5 34.8974L18 39V36.4359V19Z" fill="#2E3192"/>
<path d="M18.5 1C17.0625 1.91048 14.0433 3.7061 11.2121 4.5095C7.35894 5.60291 2.5 5 1.5 5" stroke="#F58220"/>
<path d="M18 1C19.4824 2.05888 22.0804 3.56566 25 4.5C28.9736 5.77163 32.5 5.5 34 5.5" stroke="#F58220"/>
<path d="M18 39C27.119 33.7206 32.9667 25.4947 34.177 18C34.5 16 34.5 14.5 34.5 12C34.5 9.5 34.6483 7.72706 34.5 6M34.5 6C34.4854 5.83042 34.5 5.16388 34.5 5C34.5044 5.19157 34.4943 5.91315 34.5 6Z" stroke="#F58220"/>
<path d="M18.5 39C9.38098 33.7206 2.59914 24.9947 1.38886 17.5C1.06589 15.5 1.06589 14 1.06589 11.5C1.06589 9 0.917616 7.22706 1.06589 5.5M1.06589 5.5C1.08045 5.33042 1.06589 4.66388 1.06589 4.5C1.06154 4.69157 1.07159 5.41315 1.06589 5.5Z" stroke="#F58220"/>
<path d="M12.2563 11.765C12.1303 11.1266 11.7866 10.5518 11.2839 10.1387C10.7812 9.72561 10.1507 9.49985 9.5 9.5C8.41625 9.5 7.475 10.115 7.00625 11.015C6.45509 11.0746 5.94538 11.3357 5.57506 11.7482C5.20474 12.1608 4.99994 12.6956 5 13.25C5 14.4912 6.00875 15.5 7.25 15.5H12.125C13.16 15.5 14 14.66 14 13.625C14 12.635 13.2313 11.8325 12.2563 11.765Z" fill="white"/>
<path d="M27.462 13.9C27.498 13.603 27.525 13.306 27.525 13C27.525 12.694 27.498 12.397 27.462 12.1H28.983C29.055 12.388 29.1 12.6895 29.1 13C29.1 13.3105 29.055 13.612 28.983 13.9M26.6655 16.402C26.9355 15.9025 27.1425 15.3625 27.2865 14.8H28.614C28.178 15.5507 27.4864 16.1194 26.6655 16.402ZM26.553 13.9H24.447C24.402 13.603 24.375 13.306 24.375 13C24.375 12.694 24.402 12.3925 24.447 12.1H26.553C26.5935 12.3925 26.625 12.694 26.625 13C26.625 13.306 26.5935 13.603 26.553 13.9ZM25.5 16.582C25.1265 16.042 24.825 15.4435 24.6405 14.8H26.3595C26.175 15.4435 25.8735 16.042 25.5 16.582ZM23.7 11.2H22.386C22.8175 10.4472 23.5087 9.87767 24.33 9.598C24.06 10.0975 23.8575 10.6375 23.7 11.2ZM22.386 14.8H23.7C23.8575 15.3625 24.06 15.9025 24.33 16.402C23.5104 16.1192 22.8202 15.5505 22.386 14.8ZM22.017 13.9C21.945 13.612 21.9 13.3105 21.9 13C21.9 12.6895 21.945 12.388 22.017 12.1H23.538C23.502 12.397 23.475 12.694 23.475 13C23.475 13.306 23.502 13.603 23.538 13.9M25.5 9.4135C25.8735 9.9535 26.175 10.5565 26.3595 11.2H24.6405C24.825 10.5565 25.1265 9.9535 25.5 9.4135ZM28.614 11.2H27.2865C27.1457 10.6427 26.9371 10.1047 26.6655 9.598C27.4935 9.8815 28.182 10.453 28.614 11.2ZM25.5 8.5C23.0115 8.5 21 10.525 21 13C21 14.1935 21.4741 15.3381 22.318 16.182C22.7359 16.5998 23.232 16.9313 23.7779 17.1575C24.3239 17.3836 24.9091 17.5 25.5 17.5C26.6935 17.5 27.8381 17.0259 28.682 16.182C29.5259 15.3381 30 14.1935 30 13C30 12.4091 29.8836 11.8239 29.6575 11.2779C29.4313 10.732 29.0998 10.2359 28.682 9.81802C28.2641 9.40016 27.768 9.06869 27.2221 8.84254C26.6761 8.6164 26.0909 8.5 25.5 8.5Z" fill="#F58220"/>
<path opacity="0.9" d="M15.6179 25.1933L14.7774 24.9031C14.7528 24.5372 14.6611 24.1995 14.5093 23.9151L15.2266 23.4181L15.0035 22.6969L14.0486 23.3586C13.9265 23.2662 13.7944 23.1932 13.6479 23.1426C13.5013 23.092 13.3523 23.0679 13.2022 23.0664L12.8559 21.9554L12.2355 22.3854L12.4903 23.218C12.1971 23.3498 11.9172 23.5593 11.6727 23.8312L10.8322 23.541L10.5503 24.3574L11.1754 24.5733C11.114 24.7028 11.0555 24.8334 11.0076 24.9722L10.8666 25.3804L10.2684 25.1738L9.98656 25.9903L10.5848 26.1968L10.4438 26.605C10.3959 26.7438 10.3614 26.8826 10.3298 27.0225L9.70469 26.8067L9.42282 27.6231L10.2633 27.9133C10.3221 28.7513 10.7289 29.4446 11.3929 29.6738C12.0569 29.9031 12.8047 29.6085 13.3681 28.9852L14.2086 29.2754L14.4905 28.459L13.8653 28.2431C13.9268 28.1136 13.9853 27.983 14.0332 27.8442L14.1741 27.436L14.7723 27.6426L15.0542 26.8262L14.456 26.6196L14.5969 26.2114C14.6448 26.0726 14.6794 25.9338 14.7109 25.7939L15.3361 26.0097L15.6179 25.1933ZM12.6958 27.8394L11.4994 27.4263L11.7812 26.6099L12.9777 27.0229L12.6958 27.8394ZM13.2595 26.2065L12.0631 25.7935L12.345 24.9771L13.5414 25.3901L13.2595 26.2065Z" fill="#F58220"/>
<path d="M26.375 23.8333H26.0625V23.1667C26.0625 22.2467 25.3625 21.5 24.5 21.5C23.6375 21.5 22.9375 22.2467 22.9375 23.1667V23.8333H22.625C22.2812 23.8333 22 24.1333 22 24.5V27.8333C22 28.2 22.2812 28.5 22.625 28.5H26.375C26.7188 28.5 27 28.2 27 27.8333V24.5C27 24.1333 26.7188 23.8333 26.375 23.8333ZM24.5 26.8333C24.1562 26.8333 23.875 26.5333 23.875 26.1667C23.875 25.8 24.1562 25.5 24.5 25.5C24.8438 25.5 25.125 25.8 25.125 26.1667C25.125 26.5333 24.8438 26.8333 24.5 26.8333ZM25.4688 23.8333H23.5312V23.1667C23.5312 22.5967 23.9656 22.1333 24.5 22.1333C25.0344 22.1333 25.4688 22.5967 25.4688 23.1667V23.8333Z" fill="white"/>
</svg>
