<svg width="792" height="399" viewBox="0 0 792 399" fill="none" xmlns="http://www.w3.org/2000/svg">
    <g clip-path="url(#clip0_102_2)">
        <path d="M635.056 79.8216H577.056C575.863 79.8202 574.719 79.3457 573.876 78.5021C573.032 77.6585 572.558 76.5146 572.556 75.3216V54.3216C572.556 45.4368 576.086 36.916 582.368 30.6335C588.651 24.351 597.172 20.8216 606.056 20.8216C614.941 20.8216 623.462 24.351 629.744 30.6335C636.027 36.916 639.556 45.4368 639.556 54.3216V75.3216C639.555 76.5146 639.08 77.6585 638.237 78.5021C637.393 79.3457 636.249 79.8202 635.056 79.8216Z" fill="#2F2E41"/>
        <path d="M544.851 385.91L533.108 382.388L541.102 335.418L558.434 340.615L544.851 385.91Z" fill="#A0616A"/>
        <path d="M544.432 398.191L506.568 386.837L506.711 386.358C507.291 384.422 508.247 382.62 509.524 381.054C510.801 379.488 512.374 378.189 514.153 377.231C515.932 376.272 517.882 375.674 519.892 375.469C521.902 375.265 523.933 375.458 525.868 376.039L548.996 382.974L544.432 398.191Z" fill="#2F2E41"/>
        <path d="M681.636 386.307H669.376L663.544 339.019L681.638 339.02L681.636 386.307Z" fill="#A0616A"/>
        <path d="M684.762 398.191L645.232 398.19V397.69C645.232 395.669 645.63 393.668 646.403 391.802C647.176 389.935 648.309 388.239 649.738 386.81C651.167 385.381 652.863 384.248 654.73 383.475C656.597 382.702 658.598 382.304 660.618 382.304L684.763 382.305L684.762 398.191Z" fill="#2F2E41"/>
        <path d="M607.403 79.6149C620.968 79.6149 631.964 68.6185 631.964 55.0539C631.964 41.4892 620.968 30.4928 607.403 30.4928C593.838 30.4928 582.842 41.4892 582.842 55.0539C582.842 68.6185 593.838 79.6149 607.403 79.6149Z" fill="#A0616A"/>
        <path d="M578.109 358.462C577.666 358.462 577.226 358.406 576.797 358.295L527.577 345.497C526.862 345.311 526.194 344.977 525.615 344.516C525.037 344.055 524.562 343.479 524.221 342.823C523.88 342.167 523.68 341.448 523.634 340.71C523.588 339.972 523.698 339.233 523.955 338.54C553.796 258.279 578.231 189.047 574.955 154.744C570.326 145.422 567.962 135.138 568.056 124.73L568.407 90.0501C568.417 89.0363 568.654 88.0375 569.1 87.1272C569.546 86.2169 570.191 85.4181 570.986 84.7893C571.782 84.1605 572.708 83.7178 573.696 83.4936C574.685 83.2694 575.712 83.2693 576.7 83.4935L631.766 95.9611L632.078 96.9999C636.478 111.776 636.035 127.572 630.816 142.078C663.278 171.385 685.045 267.599 697.6 343.277C697.794 344.475 697.573 345.702 696.973 346.757C696.373 347.811 695.43 348.628 694.301 349.072L694.146 349.11L655.538 352.926C654.862 353.177 654.142 353.287 653.422 353.249C652.702 353.21 651.997 353.025 651.351 352.705C650.705 352.384 650.132 351.935 649.666 351.384C649.201 350.834 648.853 350.194 648.644 349.503L615.472 240.037L583.213 354.613C582.894 355.721 582.224 356.695 581.303 357.389C580.383 358.084 579.262 358.46 578.109 358.462Z" fill="#2F2E41"/>
        <path d="M630.748 55.8216H598.322C597.713 55.8208 597.125 55.5979 596.668 55.1947C596.212 54.7915 595.918 54.2356 595.841 53.6311L595.421 50.2727C595.381 49.9498 595.237 49.6488 595.01 49.415C594.784 49.1813 594.488 49.0275 594.166 48.9768C593.845 48.9262 593.516 48.9816 593.228 49.1345C592.941 49.2874 592.711 49.5296 592.574 49.8245L590.448 54.3792C590.246 54.8095 589.926 55.1735 589.524 55.4289C589.123 55.6843 588.658 55.8204 588.183 55.8216H583.257C582.909 55.8217 582.564 55.7489 582.245 55.608C581.927 55.467 581.641 55.2611 581.407 55.0032C581.172 54.7454 580.994 54.4414 580.885 54.1107C580.775 53.7801 580.735 53.4301 580.768 53.0833L582.71 32.7972C582.752 32.3632 582.905 31.9474 583.156 31.5905C583.406 31.2336 583.745 30.9478 584.139 30.761C598.989 23.8284 614.049 23.8372 628.899 30.7874C629.276 30.9644 629.602 31.2326 629.849 31.5677C630.096 31.9028 630.256 32.2941 630.314 32.7063L633.223 52.9661C633.274 53.3208 633.248 53.6824 633.147 54.0263C633.046 54.3701 632.873 54.6883 632.638 54.9591C632.403 55.2299 632.113 55.4471 631.787 55.5959C631.461 55.7447 631.107 55.8217 630.748 55.8216Z" fill="#2F2E41"/>
        <path d="M557.583 364.776L249.666 338.926C247.421 338.735 245.343 337.661 243.888 335.94C242.433 334.219 241.721 331.991 241.907 329.745L253.535 191.232C253.726 188.987 254.8 186.909 256.521 185.454C258.243 184 260.47 183.287 262.716 183.473L570.633 209.323C572.879 209.514 574.957 210.588 576.411 212.309C577.866 214.03 578.578 216.258 578.392 218.504L566.764 357.017C566.573 359.262 565.499 361.34 563.778 362.795C562.057 364.25 559.829 364.962 557.583 364.776Z" fill="#CCCCCC"/>
        <path d="M553.353 355.389L255.401 330.376C254.213 330.275 253.113 329.706 252.342 328.795C251.572 327.884 251.195 326.704 251.294 325.515L262.085 196.968C262.186 195.779 262.755 194.679 263.666 193.909C264.577 193.139 265.757 192.761 266.946 192.86L564.898 217.873C566.087 217.974 567.187 218.543 567.957 219.454C568.727 220.365 569.104 221.545 569.006 222.734L558.214 351.282C558.113 352.47 557.544 353.57 556.633 354.34C555.722 355.111 554.542 355.488 553.353 355.389Z" fill="white"/>
        <path d="M476.605 307.133C476.624 307.135 476.643 307.136 476.662 307.136C486.489 307.336 496.023 303.785 503.325 297.205C510.626 290.626 515.148 281.513 515.971 271.719C516.793 261.924 513.854 252.185 507.751 244.48C501.648 236.776 492.84 231.685 483.118 230.243C482.997 230.225 482.875 230.231 482.757 230.263C482.64 230.294 482.53 230.35 482.435 230.425C482.34 230.5 482.262 230.593 482.205 230.699C482.148 230.805 482.114 230.922 482.104 231.042L475.797 306.179C475.777 306.413 475.852 306.645 476.003 306.823C476.155 307.002 476.371 307.114 476.605 307.133Z" fill="#3F3D56"/>
        <path d="M451.054 240.413C451.354 240.439 451.632 240.582 451.826 240.812L475.79 269.168C475.887 269.281 475.96 269.412 476.005 269.554C476.05 269.696 476.067 269.846 476.054 269.994L473.036 305.947C473.023 306.102 472.979 306.252 472.906 306.388C472.833 306.525 472.732 306.645 472.611 306.74C472.488 306.837 472.348 306.908 472.197 306.948C472.046 306.989 471.889 306.998 471.735 306.975C464.576 305.913 457.855 302.876 452.328 298.205C446.8 293.534 442.685 287.414 440.444 280.532C438.203 273.651 437.925 266.281 439.642 259.251C441.36 252.22 445.003 245.808 450.164 240.735C450.276 240.625 450.408 240.54 450.554 240.484C450.7 240.429 450.856 240.403 451.012 240.41L451.054 240.413Z" fill="#E6E6E6"/>
        <path d="M478.304 229.584C478.593 229.609 478.862 229.742 479.056 229.957C479.16 230.072 479.24 230.207 479.289 230.354C479.339 230.501 479.357 230.656 479.343 230.811L476.62 263.25C476.601 263.473 476.517 263.686 476.377 263.861C476.237 264.037 476.049 264.167 475.835 264.235C475.622 264.303 475.393 264.306 475.178 264.244C474.962 264.182 474.77 264.058 474.625 263.887L453.714 239.143C453.615 239.025 453.54 238.888 453.495 238.741C453.45 238.594 453.436 238.439 453.453 238.286C453.47 238.133 453.517 237.985 453.593 237.851C453.669 237.717 453.771 237.6 453.894 237.506C460.884 232.201 469.46 229.408 478.234 229.581C478.258 229.581 478.281 229.582 478.304 229.584Z" fill="#F58220"/>
        <path d="M459.919 321.597C459.804 322.965 459.286 324.269 458.43 325.343C457.574 326.417 456.419 327.213 455.111 327.631C453.802 328.048 452.4 328.068 451.08 327.689C449.76 327.309 448.582 326.547 447.696 325.498C446.81 324.449 446.254 323.161 446.1 321.796C445.945 320.431 446.199 319.052 446.829 317.831C447.459 316.611 448.437 315.605 449.638 314.94C450.84 314.275 452.212 313.982 453.58 314.096C455.415 314.252 457.112 315.13 458.3 316.536C459.489 317.942 460.071 319.762 459.919 321.597Z" fill="#F58220"/>
        <path d="M479.688 323.256C479.573 324.625 479.055 325.928 478.199 327.003C477.343 328.077 476.188 328.873 474.88 329.29C473.572 329.708 472.169 329.728 470.849 329.348C469.529 328.969 468.352 328.206 467.465 327.157C466.579 326.108 466.023 324.82 465.869 323.456C465.715 322.091 465.969 320.711 466.599 319.491C467.228 318.27 468.206 317.264 469.408 316.599C470.609 315.935 471.981 315.641 473.35 315.756C475.184 315.912 476.882 316.79 478.07 318.196C479.258 319.602 479.84 321.422 479.688 323.256Z" fill="#3F3D56"/>
        <path d="M499.458 324.916C499.343 326.284 498.825 327.588 497.969 328.662C497.113 329.736 495.958 330.532 494.65 330.95C493.341 331.367 491.939 331.388 490.619 331.008C489.299 330.628 488.121 329.866 487.235 328.817C486.348 327.768 485.793 326.48 485.639 325.115C485.484 323.751 485.738 322.371 486.368 321.15C486.998 319.93 487.975 318.924 489.177 318.259C490.379 317.594 491.751 317.301 493.119 317.416C494.954 317.572 496.651 318.449 497.839 319.855C499.028 321.261 499.61 323.081 499.458 324.916Z" fill="#E6E6E6"/>
        <path d="M376.026 240.607L312.539 235.278C311.921 235.226 311.298 235.296 310.707 235.485C310.116 235.673 309.568 235.977 309.094 236.377C308.62 236.778 308.23 237.268 307.945 237.819C307.66 238.37 307.487 238.973 307.435 239.591C307.383 240.209 307.454 240.832 307.642 241.423C307.831 242.014 308.134 242.562 308.535 243.036C308.935 243.51 309.425 243.9 309.977 244.185C310.528 244.469 311.13 244.643 311.748 244.695L375.235 250.024C376.484 250.129 377.723 249.734 378.68 248.925C379.637 248.116 380.234 246.96 380.339 245.711C380.444 244.462 380.048 243.223 379.239 242.266C378.43 241.309 377.274 240.712 376.026 240.607Z" fill="#E6E6E6"/>
        <path d="M373.866 266.337L310.379 261.007C309.302 260.915 308.225 261.195 307.329 261.801C306.434 262.407 305.773 263.302 305.458 264.337C305.143 265.371 305.193 266.483 305.599 267.485C306.006 268.487 306.744 269.32 307.69 269.843C308.274 270.171 308.921 270.369 309.588 270.424L373.075 275.754C373.693 275.806 374.316 275.735 374.907 275.547C375.498 275.358 376.046 275.055 376.52 274.654C376.994 274.254 377.385 273.764 377.669 273.212C377.954 272.661 378.127 272.059 378.179 271.441C378.231 270.822 378.16 270.2 377.972 269.609C377.783 269.018 377.48 268.469 377.079 267.995C376.679 267.522 376.189 267.131 375.637 266.847C375.086 266.562 374.484 266.389 373.866 266.337Z" fill="#E6E6E6"/>
        <path d="M371.706 292.066L308.219 286.737C307.601 286.685 306.978 286.755 306.387 286.944C305.796 287.133 305.248 287.436 304.774 287.836C304.3 288.237 303.91 288.727 303.625 289.278C303.34 289.83 303.167 290.432 303.115 291.05C303.063 291.668 303.134 292.291 303.322 292.882C303.511 293.473 303.814 294.021 304.215 294.495C304.615 294.969 305.105 295.359 305.657 295.644C306.208 295.928 306.81 296.102 307.428 296.154L370.915 301.483C371.533 301.535 372.156 301.465 372.747 301.276C373.338 301.088 373.886 300.784 374.36 300.384C374.834 299.983 375.225 299.493 375.509 298.942C375.794 298.39 375.967 297.788 376.019 297.17C376.071 296.552 376 295.929 375.812 295.338C375.623 294.747 375.32 294.199 374.919 293.725C374.519 293.251 374.029 292.861 373.477 292.576C372.926 292.292 372.324 292.118 371.706 292.066Z" fill="#E6E6E6"/>
        <path d="M357.959 239.091L312.539 235.278C311.921 235.226 311.298 235.296 310.707 235.485C310.116 235.673 309.568 235.977 309.094 236.377C308.62 236.778 308.23 237.268 307.945 237.819C307.66 238.37 307.487 238.973 307.435 239.591C307.383 240.209 307.454 240.832 307.642 241.423C307.831 242.014 308.134 242.562 308.535 243.036C308.935 243.51 309.425 243.9 309.977 244.185C310.528 244.469 311.13 244.643 311.748 244.695L356.222 248.428C357.153 248.135 357.986 247.594 358.633 246.864C359.28 246.133 359.716 245.24 359.895 244.281C360.073 243.322 359.987 242.332 359.646 241.418C359.305 240.503 358.722 239.699 357.959 239.091Z" fill="#F58220"/>
        <path d="M334.823 263.059L310.379 261.007C309.302 260.915 308.225 261.195 307.329 261.801C306.434 262.407 305.773 263.302 305.458 264.337C305.143 265.371 305.193 266.483 305.599 267.485C306.006 268.487 306.744 269.32 307.69 269.843L330.141 271.728C331.563 271.847 332.974 271.396 334.063 270.475C335.153 269.554 335.833 268.239 335.952 266.817C336.073 265.466 335.669 264.12 334.823 263.059Z" fill="#F58220"/>
        <path d="M366.962 291.668L308.219 286.737C307.601 286.685 306.978 286.755 306.387 286.944C305.796 287.133 305.248 287.436 304.774 287.836C304.3 288.237 303.91 288.727 303.625 289.278C303.34 289.83 303.167 290.432 303.115 291.05C303.063 291.668 303.134 292.291 303.322 292.882C303.511 293.473 303.814 294.021 304.215 294.495C304.615 294.969 305.105 295.359 305.657 295.644C306.208 295.928 306.81 296.102 307.428 296.154L366.55 301.117C367.424 300.696 368.167 300.045 368.701 299.235C369.235 298.425 369.539 297.485 369.581 296.516C369.624 295.546 369.402 294.584 368.941 293.73C368.48 292.877 367.796 292.164 366.962 291.668Z" fill="#F58220"/>
        <path d="M530.991 215.842C532.521 215.486 533.954 214.8 535.19 213.831C536.426 212.862 537.434 211.633 538.144 210.232C538.854 208.832 539.247 207.292 539.298 205.722C539.348 204.153 539.054 202.591 538.435 201.147L573.056 110.322L555.383 105.969L523.579 195.712C521.223 196.911 519.388 198.934 518.423 201.395C517.459 203.857 517.43 206.587 518.344 209.069C519.257 211.55 521.049 213.61 523.38 214.858C525.711 216.107 528.419 216.456 530.991 215.842Z" fill="#A0616A"/>
        <path d="M574.719 128.631C573.94 128.631 573.171 128.46 572.465 128.13L550.431 117.817C549.739 117.493 549.125 117.023 548.631 116.44C548.137 115.858 547.774 115.175 547.567 114.44C547.36 113.704 547.314 112.932 547.433 112.177C547.551 111.422 547.83 110.702 548.252 110.065L561.643 89.842C562.408 88.2126 563.49 86.7516 564.825 85.5438C566.16 84.3361 567.721 83.4057 569.419 82.8069C572 81.8734 574.8 81.7261 577.464 82.3835C580.129 83.0409 582.539 84.4736 584.39 86.5004C586.24 88.5272 587.449 91.0571 587.862 93.7704C588.275 96.4838 587.874 99.2587 586.71 101.744L579.812 124.839C579.484 125.935 578.811 126.896 577.894 127.579C576.976 128.262 575.863 128.631 574.719 128.631Z" fill="#2F2E41"/>
        <path d="M560.503 217.391C562.072 217.339 563.611 216.943 565.012 216.232C566.412 215.521 567.639 214.512 568.607 213.275C569.575 212.038 570.26 210.604 570.614 209.074C570.968 207.544 570.982 205.955 570.655 204.418L626.851 124.321L610.056 115.322L557.134 196.206C554.59 196.926 552.398 198.554 550.974 200.782C549.55 203.01 548.993 205.683 549.409 208.295C549.824 210.906 551.182 213.274 553.227 214.951C555.272 216.627 557.861 217.496 560.503 217.391Z" fill="#A0616A"/>
        <path d="M621.338 140.413C620.207 140.413 619.105 140.052 618.194 139.383L598.578 124.993C597.962 124.542 597.45 123.962 597.078 123.295C596.706 122.628 596.482 121.888 596.422 121.126C596.362 120.365 596.466 119.599 596.729 118.881C596.991 118.164 597.405 117.511 597.942 116.968L614.999 99.7249C616.066 98.2745 617.41 97.0506 618.954 96.1243C620.498 95.1981 622.21 94.5879 623.992 94.3294C626.705 93.9141 629.48 94.3124 631.967 95.474C634.453 96.6355 636.54 98.5082 637.962 100.855C639.385 103.202 640.08 105.919 639.959 108.661C639.838 111.402 638.908 114.047 637.284 116.26L626.04 137.578C625.588 138.434 624.911 139.15 624.083 139.649C623.254 140.149 622.305 140.413 621.338 140.413Z" fill="#2F2E41"/>
        <path d="M265.569 198.182C264.187 197.681 262.931 196.883 261.891 195.844C260.851 194.805 260.051 193.551 259.548 192.17C259.045 190.789 258.851 189.314 258.979 187.849C259.108 186.385 259.556 184.966 260.292 183.694L236.933 156.65L255.347 154.254L274.706 180.302C276.762 181.68 278.241 183.764 278.863 186.16C279.484 188.556 279.206 191.097 278.079 193.3C276.953 195.504 275.057 197.219 272.752 198.118C270.446 199.018 267.89 199.041 265.569 198.182Z" fill="#FFB8B8"/>
        <path d="M133.905 203.897C132.935 202.791 132.22 201.487 131.81 200.075C131.399 198.664 131.303 197.179 131.529 195.726C131.754 194.274 132.295 192.888 133.114 191.667C133.932 190.446 135.009 189.419 136.267 188.659L128.842 153.704L146.13 160.483L150.531 192.638C151.667 194.836 151.958 197.376 151.348 199.774C150.737 202.173 149.268 204.264 147.219 205.652C145.169 207.04 142.682 207.628 140.228 207.304C137.774 206.981 135.524 205.768 133.905 203.897Z" fill="#FFB8B8"/>
        <path d="M217.569 386.069L229.829 386.068L235.661 338.78L217.567 338.781L217.569 386.069Z" fill="#FFB8B8"/>
        <path d="M214.442 382.066L238.585 382.065H238.586C240.607 382.065 242.608 382.463 244.475 383.236C246.341 384.01 248.038 385.143 249.466 386.572C250.895 388 252.028 389.697 252.802 391.563C253.575 393.43 253.973 395.431 253.973 397.451V397.951L214.442 397.953L214.442 382.066Z" fill="#2F2E41"/>
        <path d="M157.569 386.069L169.829 386.068L175.661 338.78L157.567 338.781L157.569 386.069Z" fill="#FFB8B8"/>
        <path d="M154.442 382.066L178.585 382.065H178.586C180.607 382.065 182.608 382.463 184.475 383.236C186.341 384.01 188.038 385.143 189.466 386.572C190.895 388 192.028 389.697 192.802 391.563C193.575 393.43 193.973 395.431 193.973 397.451V397.951L154.442 397.953L154.442 382.066Z" fill="#2F2E41"/>
        <path d="M216.114 361.38C215.015 361.375 213.956 360.97 213.134 360.242C212.312 359.514 211.782 358.512 211.644 357.423L199.106 254.092C199.064 253.738 198.896 253.41 198.633 253.168C198.37 252.926 198.03 252.786 197.673 252.773C197.316 252.76 196.966 252.875 196.686 253.096C196.406 253.318 196.214 253.633 196.146 253.983L176.211 355.392C176.008 356.415 175.457 357.335 174.652 357.997C173.847 358.659 172.837 359.022 171.795 359.024H157.161C156.563 359.024 155.971 358.905 155.419 358.674C154.868 358.442 154.368 358.103 153.949 357.676C153.53 357.249 153.2 356.743 152.979 356.187C152.758 355.631 152.65 355.037 152.662 354.439L155.591 198.237L155.829 198.094C177.177 185.383 202.339 184.551 232.755 195.554L233.075 195.67L237.964 356.049C237.997 357.233 237.562 358.383 236.754 359.25C235.946 360.117 234.83 360.631 233.646 360.682L216.291 361.377C216.232 361.379 216.173 361.38 216.114 361.38Z" fill="#2F2E41"/>
        <path d="M199.408 55.0221C212.973 55.0221 223.969 44.0258 223.969 30.4611C223.969 16.8964 212.973 5.90009 199.408 5.90009C185.843 5.90009 174.847 16.8964 174.847 30.4611C174.847 44.0258 185.843 55.0221 199.408 55.0221Z" fill="#FFB8B8"/>
        <path d="M256.253 178.929C255.627 179.018 254.989 178.974 254.381 178.801C253.774 178.627 253.209 178.328 252.725 177.921L227.54 156.787C218.928 149.562 213.233 139.455 211.516 128.346L205.851 91.7447C205.157 89.9702 204.821 88.0765 204.86 86.1717C204.899 84.2669 205.313 82.3886 206.078 80.6439C206.844 78.8993 207.946 77.3227 209.321 76.0043C210.696 74.6858 212.318 73.6514 214.093 72.9601C215.868 72.2688 217.763 71.9342 219.667 71.9755C221.572 72.0168 223.45 72.4332 225.194 73.2007C226.937 73.9683 228.513 75.072 229.829 76.4489C231.146 77.8257 232.179 79.4486 232.868 81.2247L244.854 138.736L263.986 164.703C264.533 165.449 264.837 166.345 264.859 167.269C264.88 168.194 264.617 169.103 264.105 169.873L259.359 176.974C258.85 177.736 258.12 178.324 257.268 178.66C256.942 178.79 256.601 178.88 256.253 178.929Z" fill="#F58220"/>
        <path d="M134.013 180.797C133.485 180.45 133.035 179.996 132.693 179.464C132.352 178.932 132.126 178.334 132.031 177.709L127.09 145.205C125.399 134.092 127.803 122.743 133.853 113.269L153.785 82.0519C154.437 80.2617 155.435 78.6175 156.723 77.2135C158.011 75.8094 159.563 74.6729 161.29 73.8691C163.017 73.0653 164.886 72.6098 166.79 72.5288C168.693 72.4477 170.594 72.7427 172.383 73.3968C174.173 74.051 175.816 75.0514 177.218 76.3409C178.621 77.6304 179.755 79.1838 180.557 80.9121C181.358 82.6405 181.812 84.5099 181.89 86.4134C181.969 88.317 181.672 90.2175 181.015 92.0061L152.014 143.095L149.217 175.228C149.135 176.149 148.772 177.023 148.177 177.731C147.582 178.439 146.784 178.947 145.891 179.187L137.636 181.382C136.751 181.617 135.815 181.577 134.953 181.266C134.623 181.147 134.307 180.99 134.013 180.797Z" fill="#F58220"/>
        <path d="M226.273 74.0784C222.054 69.452 216.851 65.8319 211.046 63.485C205.241 61.1382 198.984 60.1245 192.736 60.5188C192.325 60.5442 191.916 60.5728 191.509 60.6047C185.586 61.073 179.832 62.8002 174.631 65.671C169.429 68.5417 164.901 72.4898 161.348 77.2512C157.736 82.0792 155.197 87.6226 153.899 93.5109C152.601 99.3992 152.575 105.497 153.823 111.396C158.586 133.94 157.38 157.336 150.327 179.272L143.738 199.731C143.527 200.386 143.469 201.082 143.569 201.763C143.669 202.445 143.924 203.094 144.314 203.661C144.705 204.229 145.22 204.699 145.821 205.035C146.422 205.372 147.092 205.566 147.78 205.603L181.465 207.414L190.085 192.524V207.877L231.026 210.078C231.108 210.083 231.189 210.085 231.269 210.085C231.891 210.085 232.505 209.956 233.074 209.707C233.643 209.457 234.154 209.093 234.575 208.636C234.997 208.18 235.319 207.641 235.521 207.053C235.724 206.466 235.803 205.843 235.753 205.224L231.126 147.842L236.93 108.869C237.869 102.642 237.4 96.284 235.555 90.2627C233.711 84.2414 230.539 78.7108 226.273 74.0784Z" fill="#F58220"/>
        <path d="M182.338 53.9081C184.612 55.2166 193.601 56.0841 194.241 53.5398L194.255 53.4839C194.7 51.6198 194.33 49.6732 194.202 47.7608C194.074 45.8484 194.262 43.7476 195.564 42.3415C197.992 39.7203 202.312 41.1098 205.823 40.4471C207.879 39.9881 209.698 38.7954 210.938 37.0923C212.179 35.3891 212.756 33.2923 212.563 31.1942C212.513 30.7967 212.434 30.3987 212.346 30.001C212.127 28.9934 212.144 27.9485 212.396 26.9485C212.648 25.9485 213.129 25.0206 213.8 24.2376C214.471 23.4545 215.314 22.8377 216.264 22.4356C217.214 22.0334 218.244 21.8569 219.273 21.9198C222.821 22.1226 226.651 23.1976 229.587 20.5696C231.857 18.5374 232.411 13.2473 231.413 10.3683C229.737 5.52999 218.999 2.99703 214.311 1.60461C208.513 -0.0706983 202.414 -0.432887 196.459 0.544369C190.503 1.52162 184.84 3.81378 179.881 7.25416C176.92 9.3414 174.154 11.964 172.892 15.3599C171.63 18.7558 172.239 23.0402 175.085 25.282C172.879 27.6176 171.325 30.4921 170.58 33.6173C169.835 36.7424 169.924 40.0086 170.839 43.0884C172.244 47.6179 178.953 51.9605 182.338 53.9081Z" fill="#2F2E41"/>
        <path d="M791 398.625H1C0.734784 398.625 0.480429 398.519 0.292892 398.332C0.105356 398.144 0 397.89 0 397.625C0 397.359 0.105356 397.105 0.292892 396.917C0.480429 396.73 0.734784 396.625 1 396.625H791C791.265 396.625 791.52 396.73 791.707 396.917C791.895 397.105 792 397.359 792 397.625C792 397.89 791.895 398.144 791.707 398.332C791.52 398.519 791.265 398.625 791 398.625Z" fill="#CCCCCC"/>
        <path d="M714.713 218.92C712.474 219.1 710.232 218.613 708.27 217.519C706.308 216.425 704.715 214.773 703.691 212.774C702.668 210.774 702.26 208.516 702.52 206.285C702.78 204.054 703.696 201.949 705.151 200.239C706.607 198.528 708.537 197.287 710.698 196.673C712.859 196.06 715.153 196.1 717.291 196.791C719.429 197.481 721.314 198.789 722.708 200.551C724.102 202.313 724.942 204.448 725.122 206.687C725.364 209.689 724.403 212.665 722.451 214.959C720.499 217.253 717.716 218.678 714.713 218.92ZM714.573 217.178C716.468 217.026 718.274 216.315 719.765 215.135C721.255 213.956 722.363 212.361 722.947 210.552C723.531 208.743 723.565 206.802 723.046 204.973C722.527 203.145 721.477 201.511 720.029 200.28C718.582 199.048 716.801 198.273 714.913 198.053C713.025 197.833 711.115 198.178 709.423 199.044C707.731 199.91 706.333 201.258 705.408 202.919C704.482 204.579 704.069 206.476 704.222 208.371C704.323 209.629 704.671 210.854 705.246 211.978C705.821 213.101 706.612 214.1 707.573 214.918C708.535 215.736 709.647 216.357 710.848 216.744C712.049 217.132 713.315 217.28 714.573 217.178Z" fill="#F2F2F2"/>
        <path d="M753.822 189.777C757.682 189.777 760.812 186.648 760.812 182.788C760.812 178.928 757.682 175.798 753.822 175.798C749.962 175.798 746.833 178.928 746.833 182.788C746.833 186.648 749.962 189.777 753.822 189.777Z" fill="#F2F2F2"/>
        <path d="M788.177 164.501C790.205 164.501 791.849 162.857 791.849 160.829C791.849 158.801 790.205 157.158 788.177 157.158C786.15 157.158 784.506 158.801 784.506 160.829C784.506 162.857 786.15 164.501 788.177 164.501Z" fill="#F2F2F2"/>
        <path d="M401.341 137.027C403.234 135.817 405.443 135.196 407.689 135.242C409.935 135.288 412.117 135.999 413.959 137.284C415.801 138.57 417.22 140.373 418.037 142.466C418.854 144.558 419.032 146.846 418.549 149.04C418.066 151.234 416.943 153.235 415.323 154.791C413.702 156.346 411.657 157.386 409.445 157.78C407.234 158.173 404.955 157.901 402.898 156.999C400.84 156.098 399.097 154.606 397.887 152.713C396.268 150.174 395.723 147.096 396.37 144.156C397.018 141.215 398.806 138.651 401.341 137.027ZM412.632 154.695C414.234 153.672 415.496 152.196 416.259 150.455C417.022 148.715 417.252 146.787 416.919 144.915C416.587 143.044 415.707 141.313 414.39 139.942C413.074 138.571 411.381 137.621 409.524 137.212C407.668 136.803 405.732 136.954 403.962 137.645C402.191 138.337 400.665 139.537 399.577 141.096C398.489 142.655 397.888 144.501 397.849 146.401C397.81 148.301 398.336 150.171 399.359 151.772C400.734 153.918 402.903 155.43 405.391 155.978C407.88 156.526 410.484 156.065 412.632 154.695Z" fill="#F2F2F2"/>
        <path d="M403.035 106.707C406.895 106.707 410.024 103.578 410.024 99.7175C410.024 95.8574 406.895 92.7282 403.035 92.7282C399.175 92.7282 396.046 95.8574 396.046 99.7175C396.046 103.578 399.175 106.707 403.035 106.707Z" fill="#F2F2F2"/>
        <path d="M399.764 62.7472C401.792 62.7472 403.436 61.1034 403.436 59.0757C403.436 57.0481 401.792 55.4043 399.764 55.4043C397.737 55.4043 396.093 57.0481 396.093 59.0757C396.093 61.1034 397.737 62.7472 399.764 62.7472Z" fill="#F2F2F2"/>
        <path d="M92.0704 265.707C90.8066 263.85 90.1218 261.659 90.1027 259.413C90.0836 257.167 90.731 254.965 91.9631 253.087C93.1952 251.209 94.9565 249.738 97.0245 248.861C99.0924 247.984 101.374 247.739 103.581 248.159C105.788 248.578 107.821 249.643 109.422 251.218C111.024 252.792 112.123 254.807 112.58 257.006C113.037 259.206 112.832 261.491 111.99 263.574C111.148 265.656 109.707 267.442 107.85 268.706C105.359 270.398 102.298 271.032 99.3399 270.469C96.3817 269.907 93.7673 268.194 92.0704 265.707ZM109.405 253.91C108.336 252.338 106.824 251.119 105.062 250.407C103.3 249.695 101.366 249.521 99.505 249.907C97.644 250.294 95.9394 251.224 94.6069 252.579C93.2743 253.935 92.3736 255.655 92.0187 257.522C91.6637 259.389 91.8705 261.32 92.6128 263.07C93.3551 264.82 94.5996 266.31 96.1889 267.353C97.7783 268.395 99.641 268.943 101.542 268.927C103.442 268.911 105.296 268.331 106.867 267.262C108.972 265.826 110.421 263.614 110.897 261.111C111.373 258.607 110.836 256.018 109.405 253.91Z" fill="#F2F2F2"/>
        <path d="M54.7277 272.082C58.5878 272.082 61.717 268.953 61.717 265.092C61.717 261.232 58.5878 258.103 54.7277 258.103C50.8676 258.103 47.7383 261.232 47.7383 265.092C47.7383 268.953 50.8676 272.082 54.7277 272.082Z" fill="#F2F2F2"/>
        <path d="M14.1974 273.208C16.225 273.208 17.8688 271.564 17.8688 269.537C17.8688 267.509 16.225 265.865 14.1974 265.865C12.1697 265.865 10.5259 267.509 10.5259 269.537C10.5259 271.564 12.1697 273.208 14.1974 273.208Z" fill="#F2F2F2"/>
    </g>
    <defs>
        <clipPath id="clip0_102_2">
            <rect width="792" height="398.625" fill="white"/>
        </clipPath>
    </defs>
</svg>
